<?xml version="1.0" encoding="UTF-8" standalone="no"?>
<!-- Created with Inkscape (http://www.inkscape.org/) -->

<svg
   width="49.779358mm"
   height="28.826616mm"
   viewBox="0 0 49.779358 28.826616"
   version="1.1"
   id="svg1"
   xmlns="http://www.w3.org/2000/svg"
   xmlns:svg="http://www.w3.org/2000/svg">
  <defs
     id="defs1" />
  <g
     id="layer1"
     transform="translate(-323.46418,-203.3202)">
    <rect
       style="fill:none;fill-opacity:1;stroke:#000000;stroke-width:0.950296"
       id="rect215"
       width="61.439163"
       height="39.022167"
       x="317.63428"
       y="198.2226"
       ry="1.0204004" />
    <g
       id="g236">
      <path
         d="m 336.8382,216.72919 0.15025,-0.0188 h 0.37488 l 0.24417,-0.0188 0.11193,-0.0188 h 0.28173 l 0.22463,-0.0564 0.0751,-0.11269 0.0376,-0.13072 v -0.15025 l 0.0376,-0.13147 0.0188,-0.14951 0.0563,-0.0939 0.0376,-0.22539 0.0188,-0.20584 0.0376,-0.13147 0.0376,-0.24417 0.0188,-0.13072 0.0563,-0.26294 0.0188,-0.29976 0.0188,-0.26294 0.0368,-0.11269 0.0564,-0.20585 0.0564,-0.26294 0.0188,-0.13072 v -0.15026 l 0.0563,-0.26294 0.0188,-0.13072 0.0376,-0.11269 0.0376,-0.13148 -0.0188,-0.11269 0.11269,-0.39366 -0.0188,-0.11269 0.0376,-0.13072 0.0563,-0.26295 0.0368,-0.20584 v -0.11269 l 0.0751,-0.33732 0.0188,-0.13148 0.0939,-0.24416 0.0188,-0.13072 v -0.24416 l 0.0188,-0.13147 0.0563,-0.11194 -0.0376,-0.13147 v -0.15026 l 0.0751,-0.11269 0.0188,-0.13072 0.0563,-0.26294 0.0188,-0.11269 0.0188,-0.28098 0.0932,-0.26294 0.0188,-0.28098 0.0376,-0.29975 0.0376,-0.24416 0.0188,-0.11269 0.0939,-0.22463 0.0188,-0.11269 0.0376,-0.24417 0.0188,-0.1495 0.0376,-0.13147 0.0188,-0.13147 0.0563,-0.24341 0.0188,-0.13148 0.0376,-0.24341 v -0.13147 l 0.018,-0.24416 0.0376,-0.1495 0.0376,-0.13148 0.0188,-0.13147 v -0.15025 l 0.0188,-0.26219 0.0751,-0.22538 v -0.13072 l 0.0188,-0.1127 -0.0188,-0.0751 0.0751,-0.11269 -0.0188,-0.13072 0.0188,-0.11269 -0.13148,-0.16904 -0.13147,-0.0563 -0.29975,-0.0376 h -0.52514 l -0.37488,-0.0188 h -0.6754 l -0.16828,0.0188 -0.11269,0.0188 -0.15025,0.16903 -0.0188,0.11269 0.0188,0.13072 -0.0376,0.13147 -0.0751,0.16904 -0.0188,0.11269 -0.0376,0.24341 -0.0368,0.11269 -0.0564,0.24341 v 0.15026 l -0.0751,0.26294 -0.0188,0.13072 0.0188,0.15025 v 0.22538 l -0.0751,0.16829 -0.0188,0.24416 -0.0564,0.24341 v 0.13147 l -0.0376,0.11269 -0.0188,0.13072 -0.0188,0.15026 -0.0188,0.13147 -0.0188,0.11269 -0.0939,0.24341 0.0376,0.11269 -0.0932,0.28098 -0.0188,0.13147 v 0.13147 l -0.0751,0.16904 -0.0376,0.20584 -0.0188,0.0939 -0.39366,-0.0188 -0.15026,0.0188 -0.22538,-0.0188 -0.1495,0.0188 -0.54392,-0.0188 h -0.15025 l -0.13147,-0.0188 0.0376,-0.15026 0.0188,-0.11194 0.0376,-0.15025 -0.0188,-0.11269 0.0376,-0.13147 0.0563,-0.24341 -0.0188,-0.13147 0.0564,-0.11269 0.0188,-0.13072 0.0376,-0.15026 0.0376,-0.0939 v -0.11269 l 0.0188,-0.22463 0.0376,-0.0939 0.0188,-0.24416 0.0376,-0.1495 0.0368,-0.13147 v -0.29976 l 0.0563,-0.13147 0.0188,-0.22538 0.0376,-0.26219 0.0751,-0.3561 0.0188,-0.16904 0.0563,-0.16904 0.0188,-0.26219 0.0188,-0.11269 0.0563,-0.22538 -0.0188,-0.13072 v -0.11269 l -0.0376,-0.16904 -0.18782,-0.0376 -0.22463,-0.0376 -0.18782,0.0563 h -0.41244 l -0.26295,-0.0188 -0.76855,0.0188 h -0.46879 l -0.16903,0.0939 -0.0188,0.2066 -0.0188,0.22463 -0.0563,0.24416 -0.0368,0.13072 0.018,0.15026 -0.0556,0.13147 -0.0188,0.13147 -0.0376,0.13072 0.0188,0.26294 -0.13147,0.24342 v 0.39441 l -0.0563,0.24341 -0.0188,0.11269 -0.0188,0.15026 -0.0751,0.1495 v 0.26294 l -0.0188,0.0939 -0.0564,0.39367 -0.0376,0.1495 -0.0368,0.24416 -0.0751,0.39367 -0.0188,0.26294 -0.0188,0.13072 -0.11269,0.26294 -0.0188,0.2622 -0.0376,0.26294 -0.0188,0.11269 -0.0939,0.54392 -0.0744,0.26219 v 0.15026 l -0.0563,0.1495 -0.0564,0.13147 -0.0376,0.28173 v 0.13072 l -0.0376,0.22538 -0.0564,0.18706 -0.0188,0.24417 -0.0751,0.26219 0.0188,0.13147 -0.0376,0.15025 -0.0188,0.1127 -0.0376,0.11193 -0.0932,0.65661 -0.0376,0.15026 -0.0563,0.26219 v 0.15025 l -0.0188,0.13148 -0.0751,0.16828 -0.0751,0.13147 0.0188,0.26295 -0.0751,0.26219 0.0188,0.15025 -0.0376,0.13147 -0.11269,0.20585 0.0376,0.13147 -0.0376,0.11269 v 0.13072 l -0.0376,0.16904 -0.018,0.18782 -0.0939,0.24341 -0.0751,0.16903 v 0.15026 l 0.0751,0.20584 0.37488,0.0376 h 0.60026 l 0.22463,0.0376 0.13147,-0.0376 0.13148,-0.0188 0.13147,0.0563 h 0.1495 l 0.28173,-0.0376 0.22463,-0.0188 0.16903,-0.0188 0.15026,-0.0751 0.0931,-0.18707 0.0376,-0.28172 0.0188,-0.13148 0.0376,-0.1495 0.0376,-0.26294 v -0.13072 l 0.0563,-0.26295 0.0188,-0.15025 0.11269,-0.52514 0.0376,-0.28097 0.0751,-0.24416 0.018,-0.0932 0.0939,-0.22538 -0.0188,-0.11269 0.11269,-0.41245 0.0939,-0.43123 0.0376,-0.13147 v -0.31854 l 0.0751,-0.13147 0.0376,-0.24341 0.0744,-0.26294 0.0188,-0.14951 0.0188,-0.0939 0.31929,0.0188 0.28098,0.0563 0.60026,-0.0563 0.16904,0.0376 h 0.13072 l 0.16903,-0.0188 -0.0376,0.22463 v 0.13147 l -0.0376,0.26219 -0.0376,0.13147 -0.0563,0.26295 v 0.22463 l -0.0376,0.18782 -0.0744,0.20584 -0.11269,0.5627 -0.0376,0.35686 -0.0563,0.28097 -0.0188,0.26219 -0.0376,0.0939 -0.0188,0.24416 -0.0188,0.13072 v 0.13148 l -0.0188,0.13147 -0.0751,0.39366 v 0.26295 l -0.0744,0.13072 -0.0376,0.16903 -0.0188,0.16904 -0.0188,0.1495 0.11194,0.16904 0.13148,0.0188 h 0.13147 l 0.2066,0.0188 h 0.50635 z m 0,0"
         id="path215"
         style="fill:#180033;fill-opacity:1;stroke-width:0.192325" />
      <path
         d="m 341.4136,216.72919 0.15025,-0.0188 0.52514,0.0188 0.11193,-0.0751 0.0751,-0.13148 0.0564,-0.0932 0.0563,-0.2066 0.11269,-0.28098 0.18707,-0.35685 0.0751,-0.22463 0.0564,-0.13147 0.0376,-0.13147 0.13148,-0.24341 0.0939,-0.2066 h 0.50636 l 0.82489,0.0188 0.29976,0.0376 0.4132,0.0188 0.018,0.15025 v 0.88124 l -0.018,0.18781 0.018,0.18707 0.0188,0.33732 0.0376,0.18782 0.0751,0.0563 h 0.28172 l 0.24342,0.0188 0.18781,-0.0188 0.13147,-0.0188 0.22463,0.0188 h 0.15026 l 0.41244,-0.0188 h 0.2622 l 0.15025,0.0188 0.13147,-0.0188 c 0.0751,0 0.13147,0.0188 0.20585,0 0.0939,-0.0564 0.0751,-0.22538 0.0563,-0.29976 v -0.39441 l -0.0188,-0.41245 v -0.16828 l -0.0188,-0.15026 0.0188,-0.26294 v -0.28097 l -0.0188,-0.13148 -0.0188,-0.24341 v -0.11269 l -0.0368,-0.71295 0.0188,-0.13072 -0.0188,-0.26295 0.0188,-0.28097 -0.0188,-0.28173 v -0.13072 l -0.0188,-0.86321 v -0.5627 l -0.0188,-0.1495 -0.0188,-0.22538 v -0.73098 l -0.0376,-0.2066 -0.0188,-0.29976 v -0.11269 l -0.0188,-0.24416 0.0188,-0.11194 -0.0188,-0.26294 v -0.37489 l -0.0376,-0.26294 v -0.41245 l 0.0188,-0.13147 -0.0188,-0.28097 v -0.2622 l -0.0376,-0.37563 -0.0188,-0.24341 v -0.26295 l -0.0188,-0.67463 v -0.33808 l -0.0376,-0.11193 v -0.4132 l -0.0563,-0.80611 -0.13148,-0.0939 -0.0932,-0.0376 h -0.30051 l -0.16828,0.0188 -0.13148,-0.0376 h -0.16903 l -0.3561,0.0188 h -0.29976 l -0.18782,0.0188 -0.3561,-0.0188 h -0.18781 l -0.13148,0.0188 -0.0751,0.2066 -0.0556,0.11269 -0.0563,0.13072 -0.16904,0.33807 -0.13147,0.24341 -0.11269,0.33732 -0.0368,0.0939 -0.0751,0.11269 -0.11269,0.2066 -0.0376,0.13072 -0.0376,0.11269 -0.0563,0.11269 -0.0376,0.13147 -0.16828,0.33732 -0.0563,0.13147 -0.0563,0.18707 -0.11269,0.16903 -0.0563,0.11269 -0.0939,0.24341 -0.14951,0.39367 -0.0751,0.11269 -0.0939,0.13147 -0.0564,0.26219 -0.11269,0.24417 -0.0376,0.0939 -0.0564,0.24341 -0.0931,0.13147 -0.0564,0.24416 -0.0563,0.11194 -0.11269,0.2066 -0.0939,0.31854 -0.13072,0.24416 -0.0563,0.15025 -0.15025,0.52439 -0.0564,0.11269 -0.0939,0.26294 -0.0563,0.11194 -0.0556,0.13147 -0.0188,0.11269 -0.11269,0.2622 -0.0376,0.13147 -0.11269,0.22538 -0.0939,0.1495 -0.0376,0.16904 -0.0376,0.13147 -0.13072,0.26219 -0.0563,0.13147 -0.0939,0.24417 -0.0564,0.11194 -0.0188,0.13147 -0.0376,0.11269 -0.0939,0.22463 -0.0932,0.13147 -0.0376,0.11269 -0.15025,0.33732 -0.0751,0.24416 -0.20585,0.45001 -0.0939,0.22463 -0.11269,0.22538 -0.18781,0.5627 -0.14951,0.24341 -0.11269,0.22538 -0.0188,0.11269 -0.0376,0.13072 0.0376,0.15026 0.16904,0.0376 1.36881,0.0188 0.13147,0.0188 z m 3.09447,-4.51963 -0.16903,-0.0188 -0.20585,-0.0188 h -0.15026 l -0.13147,-0.11269 0.0564,-0.13072 0.0376,-0.16904 0.0376,-0.13147 0.0939,-0.31854 0.0744,-0.13147 0.0939,-0.28097 0.0188,-0.13148 0.11269,-0.41244 0.0563,-0.16904 0.0564,-0.13147 0.0563,-0.16828 0.0751,-0.13148 0.0188,-0.13147 0.0744,-0.18706 0.0751,-0.15026 0.0939,-0.30051 0.0563,-0.18706 0.0939,-0.30051 0.0751,-0.24341 0.1495,-0.0564 0.0188,0.43123 -0.0188,0.67539 -0.0188,0.71221 0.0188,0.45001 -0.0376,0.15025 v 0.31929 l -0.0188,0.13072 v 0.48757 l -0.0188,0.15026 0.0188,0.15025 -0.0188,0.26219 -0.11194,0.0939 z m 0,0"
         id="path216"
         style="fill:#180033;fill-opacity:1;stroke-width:0.192325" />
      <path
         d="m 352.36519,216.91701 0.18706,-0.0376 0.24416,-0.0188 h 0.28098 l 0.24416,-0.0564 0.22463,-0.0376 0.22538,-0.0564 0.48757,-0.11269 0.13148,-0.0563 0.29975,-0.18707 0.28173,-0.24416 0.28097,-0.33732 0.0376,-0.11269 0.0563,-0.11269 0.0939,-0.11194 0.0744,-0.11269 0.0563,-0.13147 0.0939,-0.22538 0.11269,-0.29976 0.0563,-0.11269 0.0376,-0.13072 0.0188,-0.13147 0.0563,-0.22538 0.11194,-0.4688 0.0376,-0.11269 0.0563,-0.39366 0.0188,-0.0751 0.0188,-0.13072 0.0376,-0.0939 0.0188,-0.2066 0.0376,-0.24341 v -0.13147 l 0.0376,-0.11269 v -0.20585 l -0.0751,-0.13147 -0.13147,-0.13147 -0.22463,-0.0188 -0.9188,-0.0563 h -0.39442 l -0.48757,-0.0188 -0.1495,0.0188 -0.13147,0.15026 -0.0376,0.18781 -0.0939,0.24341 -0.0188,0.13148 -0.0376,0.16903 -0.0563,0.28098 -0.0563,0.22538 -0.018,0.0931 -0.0188,0.11269 -0.0751,0.24417 -0.0939,0.26219 -0.15025,0.33732 -0.0751,0.0939 -0.26219,0.16903 h -0.28173 l -0.29976,0.0376 -0.28097,-0.0939 -0.15025,-0.13147 -0.0751,-0.28098 v -0.13147 l -0.0188,-0.11269 v -0.18707 l 0.0188,-0.26294 0.0564,-0.26219 v -0.15026 l 0.0563,-0.39366 -0.0188,-0.13147 0.0376,-0.13148 0.0188,-0.13072 v -0.15025 l 0.0188,-0.13147 0.0563,-0.13147 v -0.39367 l 0.0556,-0.28097 0.0376,-0.15026 0.0376,-0.24341 0.0188,-0.13147 0.0751,-0.30051 0.0188,-0.1495 0.15026,-0.75052 0.0939,-0.28097 0.0376,-0.26295 0.0368,-0.13072 0.0188,-0.11269 0.0188,-0.13147 0.0564,-0.16903 0.0563,-0.22463 0.0564,-0.28173 0.0751,-0.22463 v -0.11269 l 0.11269,-0.31854 0.0939,-0.24416 0.0744,-0.31854 0.0563,-0.13147 0.0563,-0.11269 0.16904,-0.20585 0.20584,-0.0751 0.22538,-0.0376 h 0.2066 l 0.2622,0.0751 0.2066,0.11269 0.11193,0.33732 v 0.28097 l -0.0376,0.26295 -0.0188,0.24341 -0.11194,0.4132 -0.0376,0.26219 -0.0751,0.33732 -0.0376,0.13147 v 0.26295 l 0.13147,0.20584 0.54392,0.0751 1.18099,0.0188 0.26294,-0.0188 0.22463,-0.0188 0.0751,-0.0751 0.0939,-0.48757 0.0376,-0.15026 0.11269,-0.73098 0.0376,-0.29976 0.0376,-0.28172 0.0368,-0.15026 0.0188,-0.18706 v -0.41245 l -0.0188,-0.28172 -0.0188,-0.16904 -0.018,-0.24341 -0.0188,-0.22538 -0.0376,-0.20585 -0.0939,-0.18782 -0.0376,-0.13147 -0.0563,-0.0932 -0.0939,-0.16903 -0.0376,-0.0939 -0.20584,-0.18707 -0.24417,-0.18781 -0.26219,-0.0939 -0.2066,-0.0376 -0.0751,-0.0564 -0.13073,-0.0188 -0.13147,-0.0376 -0.11269,-0.0188 -0.26219,-0.0368 h -0.18782 l -0.16903,-0.0564 -0.46879,-0.0563 h -0.29976 l -0.35685,0.0188 h -0.28098 l -0.13147,0.0188 -0.24341,0.0563 -0.31929,0.0556 -0.39367,0.16904 -0.11269,0.0563 -0.24341,0.11269 -0.11269,0.0939 -0.26219,0.2622 -0.15025,0.18781 -0.13148,0.18707 -0.13072,0.11269 -0.0751,0.2066 -0.11269,0.26219 -0.0939,0.22538 -0.11269,0.31854 -0.0751,0.26294 -0.11194,0.37489 -0.13147,0.37488 -0.0564,0.24416 -0.0563,0.13072 -0.0188,0.13147 -0.0188,0.11269 -0.0376,0.13148 -0.0188,0.13072 -0.0563,0.11269 -0.018,0.18781 -0.0376,0.20585 -0.0376,0.13147 -0.0939,0.37489 v 0.26294 l -0.0563,0.11194 v 0.11269 l -0.0188,0.22538 -0.0563,0.18707 -0.0376,0.2066 -0.0563,0.20659 v 0.0744 l -0.0188,0.0563 v 0.26294 l -0.0751,0.11269 -0.0556,0.33732 0.0188,0.0939 -0.0563,0.20585 -0.0376,0.15025 0.0188,0.16903 -0.0751,0.2622 -0.0376,0.39366 -0.0188,0.11269 v 0.13147 l -0.0376,0.2622 -0.0188,0.26294 -0.0188,0.15025 -0.0188,0.39367 v 0.48757 l -0.0188,0.13147 v 0.16829 l 0.0188,0.15025 v 0.3561 l 0.0376,0.13148 0.0376,0.24341 0.0376,0.11269 0.0564,0.24416 0.16828,0.24341 0.13147,0.26294 0.0939,0.0939 0.0751,0.0932 0.24341,0.18782 0.11269,0.0751 0.0939,0.0751 0.18782,0.11194 0.11193,0.0939 0.22539,0.0751 0.24341,0.0939 0.11269,0.0188 0.13147,0.0376 0.18782,0.0188 0.11193,0.0188 0.15026,0.0188 0.2066,0.0188 0.13072,0.0188 h 0.13147 z m 0,0"
         id="path217"
         style="fill:#180033;fill-opacity:1;stroke-width:0.192325" />
      <path
         d="m 357.25884,216.69163 0.18782,-0.0188 0.16904,0.0188 h 0.3561 l 0.13147,-0.0188 0.0563,0.0188 h 0.11194 l 0.26295,-0.0188 0.22463,0.0188 0.16903,-0.0188 h 0.48758 l 0.20659,-0.0751 0.0932,-0.37488 v -0.22538 l 0.0751,-0.20585 0.0751,-0.26294 0.0188,-0.24341 0.0188,-0.13148 0.0376,-0.11269 0.0564,-0.22463 0.0563,-0.3005 0.0376,-0.39367 0.0376,-0.11269 0.0556,-0.13072 0.0188,-0.24416 0.0188,-0.15026 0.0188,-0.26219 0.0376,-0.15025 0.0564,-0.26219 v -0.1127 l 0.0188,-0.13147 0.0376,-0.22463 0.0376,-0.24416 0.0376,-0.39366 0.0376,-0.11269 0.0188,-0.13148 0.0376,-0.1495 0.0188,-0.11269 h 0.0564 l 0.11194,0.28098 0.16903,0.48757 0.0564,0.15025 0.0563,0.16904 0.0188,0.15025 0.0939,0.20585 v 0.13147 l 0.0932,0.20585 0.0564,0.13147 0.0188,0.11269 0.0376,0.24341 0.11269,0.24416 0.0751,0.22539 0.0751,0.26219 0.0932,0.26219 0.0376,0.11269 0.0376,0.13147 0.0564,0.24341 0.0751,0.15026 0.0751,0.22538 0.15025,0.52514 0.16829,0.45001 0.0563,0.24341 0.0751,0.11269 0.22537,0.0376 0.41245,-0.0188 0.13072,0.0188 h 0.39442 l 0.16828,-0.0188 0.58148,0.0188 h 0.4688 l 0.43122,-0.0188 0.0188,-0.16904 -0.0376,-0.0931 -0.11194,-0.31929 -0.0751,-0.20585 -0.13148,-0.22538 -0.0563,-0.2066 -0.0188,-0.1495 -0.0563,-0.0939 -0.0563,-0.13147 v -0.14951 l -0.0556,-0.11269 -0.0188,-0.13147 -0.0188,-0.16903 -0.15026,-0.22463 v -0.11269 l -0.0751,-0.24341 -0.0751,-0.13148 v -0.11269 l -0.0188,-0.13147 -0.1495,-0.22463 -0.0376,-0.13147 -0.0751,-0.22538 -0.0939,-0.20585 -0.0188,-0.13147 -0.0751,-0.16904 -0.0188,-0.11193 -0.0563,-0.15026 -0.0188,-0.15025 -0.0751,-0.16829 -0.0932,-0.2066 -0.0751,-0.24341 -0.0376,-0.15025 -0.15025,-0.52514 -0.0564,-0.22538 -0.0939,-0.22463 -0.0368,-0.18781 -0.0939,-0.29976 -0.0376,-0.18782 0.18707,-0.37488 0.33807,-0.45001 0.13147,-0.2066 0.0932,-0.16828 0.13147,-0.16904 0.2066,-0.31929 0.16828,-0.22463 0.13147,-0.18781 0.28098,-0.41245 0.11269,-0.15025 0.11269,-0.16829 0.18782,-0.22538 0.0932,-0.13147 0.11269,-0.13072 0.0751,-0.18782 0.15025,-0.16903 0.0751,-0.14951 0.11194,-0.11269 0.0751,-0.11269 0.15025,-0.16828 0.0939,-0.18782 0.0751,-0.13147 0.13072,-0.18707 0.0751,-0.0939 0.0188,-0.11269 0.0939,-0.0939 0.0939,-0.13148 0.16829,-0.20584 0.15025,-0.18782 0.0564,-0.13147 0.15025,-0.22463 -0.0563,-0.13147 -0.22539,-0.0564 -0.16828,0.0188 -0.37563,-0.0376 -0.2622,0.0376 h -0.3561 l -0.0939,0.0188 -0.18781,-0.0188 h -0.58149 l -0.33732,-0.0188 -0.18781,0.0564 -0.1495,0.20659 -0.0564,0.14951 -0.11269,0.11269 -0.2066,0.28172 -0.16828,0.24341 -0.2066,0.28173 -0.11269,0.1495 -0.0368,0.13147 -0.16904,0.2066 -0.18782,0.28098 -0.0939,0.16903 -0.1495,0.16829 -0.13147,0.18781 -0.15025,0.18782 -0.0376,0.0932 -0.0932,0.18782 -0.15026,0.13147 -0.11269,0.15025 -0.11269,0.16829 -0.20585,0.24416 -0.11269,0.22463 -0.18781,0.18781 -0.0376,-0.13147 0.0563,-0.33732 0.0563,-0.22538 0.0939,-0.50635 0.0376,-0.11194 v -0.13147 l 0.0376,-0.13148 0.0188,-0.18781 0.0376,-0.16829 0.0376,-0.15025 0.0376,-0.37488 0.0188,-0.13148 0.0556,-0.28097 0.0563,-0.31929 0.0188,-0.26219 0.0376,-0.31929 0.0376,-0.18707 -0.0563,-0.13147 -0.14951,-0.0751 h -0.28172 l -0.28098,-0.0188 h -0.13147 l -0.3561,0.0188 -0.26294,-0.0188 h -0.4688 l -0.26219,-0.0188 -0.13147,0.0376 h -0.16904 l -0.0751,0.0564 -0.0564,0.16903 -0.0556,0.3561 -0.0376,0.22539 v 0.24341 l -0.0563,0.2066 v 0.24341 l -0.0751,0.24416 -0.0751,0.48757 -0.0188,0.14951 -0.0376,0.11269 -0.0188,0.26294 v 0.11194 l -0.0376,0.13147 v 0.11269 l -0.0376,0.13147 -0.0563,0.22463 0.0188,0.13147 -0.0368,0.2622 -0.0563,0.11269 -0.0188,0.24416 -0.0376,0.13147 v 0.11194 l -0.0564,0.11269 -0.0188,0.26295 -0.0188,0.20584 -0.0564,0.26295 -0.0563,0.29975 -0.0188,0.13148 -0.0188,0.1495 -0.0563,0.26294 -0.0744,0.37488 -0.0376,0.28173 -0.0188,0.13072 -0.0188,0.26294 -0.0751,0.28098 -0.0564,0.28173 -0.0376,0.1495 -0.0563,0.26294 -0.0751,0.52514 -0.0376,0.28097 -0.0563,0.26295 -0.0932,0.39366 v 0.13147 l -0.0751,0.24341 v 0.11269 l -0.0376,0.1127 -0.0188,0.26219 -0.0563,0.13147 -0.0376,0.33732 v 0.0939 l -0.0563,0.24416 v 0.13072 l -0.0188,0.15025 v 0.13148 l -0.0751,0.24341 -0.0188,0.11269 -0.0556,0.24416 0.018,0.13072 -0.0556,0.13147 v 0.13148 l -0.0188,0.28097 z m 0,0"
         id="path218"
         style="fill:#180033;fill-opacity:1;stroke-width:0.192325" />
      <g
         id="g227"
         style="fill:#c2a3ff;fill-opacity:1"
         transform="translate(193.87258,52.23845)">
        <path
           d="m 137.65163,166.22384 c -0.14274,0.31704 -0.28548,0.63408 -0.46052,0.92331 -0.64685,1.09085 -1.44019,2.05547 -2.26733,2.99231 -1.3583,1.5446 -2.70307,3.07344 -4.03131,4.61579 -0.33582,0.39291 -0.65436,0.80085 -0.94209,1.22081 -0.1495,0.22613 -0.25092,0.49359 -0.32079,0.75878 -0.12096,0.40719 0.0533,0.66863 0.43198,0.82114 0.34633,0.12546 0.69642,0.11269 1.02923,0.0706 0.62281,-0.0496 1.18626,-0.26219 1.73093,-0.51988 2.54905,-1.18174 5.0643,-2.40631 7.52095,-3.77888 0.36662,-0.19683 0.7137,-0.43874 1.06229,-0.66487 0.0879,-0.0533 0.14124,-0.14875 0.22388,-0.26295 -0.43499,-0.0871 -0.43348,-0.0721 -0.81663,0.11119 -2.67827,1.28317 -5.35654,2.56709 -8.03557,3.83523 -0.45677,0.21937 -0.94509,0.41169 -1.4199,0.58674 -0.11945,0.0406 -0.25843,0.021 -0.39516,0.0316 -0.13673,-0.37112 0.0225,-0.67389 0.20059,-0.93232 0.3283,-0.48457 0.65736,-0.95411 1.03299,-1.41239 1.22682,-1.47248 2.46942,-2.94722 3.71127,-4.42121 0.53114,-0.62281 1.07957,-1.21706 1.56264,-1.86691 0.47104,-0.60251 0.90828,-1.2486 1.28391,-1.90521 0.444,-0.75353 0.0902,-1.16823 -0.71295,-1.27265 -0.0774,-0.009 -0.13748,-0.004 -0.21336,0.002 -0.40869,0.0473 -0.83541,0.0661 -1.23959,0.17505 -0.99994,0.29374 -1.9826,0.61679 -2.98179,0.92556 -0.1187,0.0398 -0.25693,0.0361 -0.42221,0.0646 0.12095,-0.39216 0.34708,-0.62355 0.57322,-0.8557 1.1562,-1.20804 2.39579,-2.33043 3.73756,-3.32361 0.49058,-0.36061 1.01646,-0.66187 1.5431,-0.96388 0.27872,-0.14424 0.55594,-0.30426 0.92181,-0.31778 0.34784,0.72046 -0.01,1.40637 -0.0759,2.11407 0.0909,-0.007 0.18331,7.5e-4 0.22764,-0.018 0.56194,-0.42672 0.88123,-1.01722 1.02698,-1.68585 0.10893,-0.54392 -0.17955,-0.90302 -0.76254,-0.93232 -0.4147,-0.0286 -0.83992,0.006 -1.22081,0.20434 -0.58674,0.30652 -1.20503,0.60027 -1.77299,0.95111 -1.628,1.04651 -3.10425,2.26507 -4.49259,3.62862 -0.22613,0.23215 -0.45226,0.46429 -0.64534,0.72348 -0.1803,0.22838 -0.43498,0.47855 -0.25693,0.8001 0.1773,0.30652 0.49959,0.3268 0.80461,0.31778 0.44024,-0.0353 0.87973,-0.0856 1.31472,-0.1818 0.62806,-0.17204 1.23734,-0.38841 1.86389,-0.57623 0.52213,-0.16377 1.06004,-0.31403 1.70163,-0.50259 -0.01,0.26069 0.0331,0.41019 -0.0195,0.52062 z m 0,0"
           id="path219"
           style="opacity:1;fill:#c2a3ff;fill-opacity:1;stroke-width:0.192325" />
        <g
           id="g226"
           style="fill:#c2a3ff;fill-opacity:1">
          <path
             d="m 147.75669,171.66616 c -0.4763,0.34408 -0.86621,0.81813 -1.46572,1.1562 0.0511,-0.30952 0.0789,-0.54092 0.13898,-0.74451 0.19082,-0.67238 0.39667,-1.34552 0.57247,-2.0164 0.0729,-0.23515 0.12922,-0.48382 0.15401,-0.74601 0.0278,-0.4147 -0.16753,-0.56721 -0.5935,-0.54843 -0.27497,0.007 -0.51312,0.0872 -0.71296,0.25543 -0.34258,0.30276 -0.70018,0.60628 -1.02548,0.93758 -0.38089,0.39743 -0.72798,0.83767 -1.09084,1.26364 -0.0714,0.0669 -0.15852,0.11945 -0.32981,0.27121 0.11044,-0.5289 0.21562,-0.93458 0.27497,-1.33651 0.0714,-0.44851 -0.0774,-0.58975 -0.5319,-0.53791 -0.0909,0.008 -0.16152,0.0744 -0.26595,0.11269 -0.15551,0.73099 -0.32605,1.46272 -0.45151,2.1907 -0.0811,0.51086 0.18256,0.74977 0.68891,0.58674 0.16453,-0.0436 0.32305,-0.16302 0.46654,-0.28172 0.22688,-0.21712 0.45151,-0.46429 0.66262,-0.69493 0.36286,-0.42597 0.72647,-0.85194 1.09084,-1.26363 0.2389,-0.26295 0.49584,-0.48232 0.75127,-0.73174 0.14349,0.2637 0.006,0.45753 -0.0406,0.64459 -0.17204,0.71671 -0.37413,1.43568 -0.54617,2.15239 -0.0564,0.24867 -0.0511,0.50785 -0.0458,0.76779 0.0195,0.24266 0.16753,0.36812 0.41245,0.37939 0.18331,7.5e-4 0.38089,-0.015 0.54316,-0.0894 0.22013,-0.10893 0.43874,-0.24867 0.62281,-0.43123 0.69492,-0.66712 1.38909,-1.34927 2.08326,-2.03068 0.0421,-0.0496 0.0676,-0.11269 0.14951,-0.24115 -0.69267,0.13147 -1.06605,0.61979 -1.51156,0.9759 z m 0,0"
             id="path220"
             style="fill:#c2a3ff;fill-opacity:1;stroke-width:0.192325" />
          <path
             d="m 154.44815,169.17643 c -0.4455,0.3561 -0.91129,0.63783 -1.46497,0.78959 -0.37488,0.0909 -0.7415,0.0894 -1.04502,-0.26821 0.21111,-0.61303 0.42522,-1.18024 0.62431,-1.74595 0.0631,-0.17279 0.1217,-0.39141 -0.0571,-0.53039 -0.17805,-0.12321 -0.39216,-0.12096 -0.59876,-0.0285 -0.10367,0.0391 -0.22162,0.0939 -0.29149,0.17655 -0.54692,0.60853 -0.87298,1.30721 -0.75953,2.15389 0.0285,0.16527 0.0406,0.31703 -0.0248,0.45977 -0.43648,0.84518 -0.87222,1.70463 -1.31021,2.53403 -0.0518,0.11119 -0.11569,0.26896 -0.36587,0.19758 -0.001,-0.39742 -0.0188,-0.80836 0.009,-1.22306 0.0308,-0.56796 0.0609,-1.15094 0.0759,-1.73243 0.005,-0.1232 -0.0503,-0.2404 -0.11119,-0.43423 -0.11419,0.10067 -0.20284,0.13823 -0.24341,0.20284 -0.0654,0.14274 -0.12922,0.30051 -0.14575,0.46955 -0.11494,0.86471 -0.19758,1.74219 -0.29525,2.62117 -0.0218,0.10894 0.003,0.22914 0.0128,0.35084 0.0736,0.34559 0.31703,0.52439 0.64834,0.46729 0.21036,-0.0473 0.41771,-0.12471 0.5597,-0.25843 0.20209,-0.15401 0.38465,-0.3516 0.52062,-0.5612 0.36512,-0.59425 0.71521,-1.18776 1.0638,-1.79628 0.12096,-0.2081 0.24041,-0.43198 0.34784,-0.62356 1.83385,0.007 2.79397,-0.40643 3.46034,-1.43717 -0.2682,-0.10142 -0.43649,0.0804 -0.60928,0.21636 z m 0,0"
             id="path221"
             style="fill:#c2a3ff;fill-opacity:1;stroke-width:0.192325" />
          <path
             d="m 159.27951,168.45424 c -0.2945,0.14575 -0.3516,0.38015 -0.45903,0.57172 -0.66487,1.04652 -1.47849,1.9518 -2.4897,2.68954 -0.27346,0.2051 -0.54768,0.41019 -0.95486,0.4733 -0.0729,-0.14725 -0.16002,-0.27722 -0.18707,-0.42822 -0.015,-0.18181 7.5e-4,-0.36662 0.0323,-0.55294 0.1465,-0.65285 0.293,-1.30645 0.45452,-1.96081 0.0436,-0.21787 0.148,-0.44024 0.0992,-0.66562 -0.5304,-0.14049 -0.6799,-0.0984 -0.87748,0.29975 -0.36512,0.77757 -0.63633,1.5942 -0.76705,2.44463 -0.008,0.0924 -0.0158,0.18481 -0.024,0.27722 -0.0315,0.75127 0.31854,1.12014 1.08033,1.09009 0.53415,-0.012 0.99392,-0.18631 1.42741,-0.49584 0.99543,-0.73699 1.82558,-1.62799 2.40856,-2.74438 0.12021,-0.22313 0.2081,-0.45978 0.27948,-0.70995 0.0255,-0.0631 -0.012,-0.15175 -0.0225,-0.28849 z m -3.32963,-1.32298 c 0.0706,-0.0669 0.12697,-0.13222 0.16604,-0.21186 0.0886,-0.2359 0.16152,-0.47104 0.27571,-0.75502 -0.43423,-0.0879 -0.79785,-0.0436 -1.13141,0.1818 -0.26069,0.17355 -0.3238,0.52965 -0.17054,0.73174 0.20435,0.25844 0.61905,0.28698 0.8602,0.0533 z m 0,0"
             id="path222"
             style="fill:#c2a3ff;fill-opacity:1;stroke-width:0.192325" />
          <path
             d="m 164.55578,168.5222 c -0.27271,0.22013 -0.52965,0.45452 -0.7693,0.70319 -0.80085,0.87373 -1.58593,1.76173 -2.38678,2.63545 -0.15476,0.16453 -0.31028,0.32981 -0.49283,0.52814 -0.40644,-0.50259 -0.6784,-1.03074 -0.87598,-1.59569 -0.17655,-0.48983 -0.13824,-0.96688 0.0541,-1.42516 0.2682,-0.66337 0.73173,-1.17348 1.37632,-1.51531 0.10293,-0.0541 0.24341,-0.0195 0.41019,-0.0331 -0.0331,0.35385 -0.0556,0.64609 -0.0977,1.07732 0.2081,-0.0774 0.38991,-0.0924 0.44475,-0.17279 0.17955,-0.24342 0.3268,-0.50035 0.44175,-0.78433 0.0879,-0.2359 -0.021,-0.45677 -0.27422,-0.55894 -0.14124,-0.0496 -0.31177,-0.0819 -0.46503,-0.0849 -1.25312,-0.007 -2.64973,1.06756 -2.96601,2.26884 -0.10518,0.40568 -0.14725,0.83691 0.0376,1.23508 0.17054,0.41395 0.37263,0.84067 0.60252,1.23509 0.21411,0.38014 0.45677,0.743 0.68591,1.12164 -0.16678,0.21186 -0.30502,0.39141 -0.4425,0.58524 -0.27196,0.41921 -0.55969,0.83917 -0.81437,1.28767 -0.10668,0.19158 -0.148,0.4395 -0.16002,0.67013 -0.0203,0.3223 0.17654,0.48983 0.52964,0.50711 0.27572,0.009 0.54392,-0.0736 0.79109,-0.23064 0.36286,-0.24341 0.69116,-0.52889 0.95185,-0.90152 0.30352,-0.40644 0.45076,-0.86095 0.33357,-1.37107 -0.024,-0.10517 -0.0488,-0.22538 -0.0736,-0.34558 0.16678,-0.21186 0.31929,-0.40719 0.4718,-0.60327 0.99017,-1.17874 1.9826,-2.3432 2.95774,-3.52119 0.15401,-0.18031 0.30878,-0.34484 0.44551,-0.53941 0.0548,-0.0811 0.0616,-0.18857 0.0984,-0.29826 -0.34708,-0.14049 -0.60176,-0.0744 -0.81437,0.12621 z m -3.91712,6.43988 c -0.15701,0.33281 -0.39516,0.59651 -0.8001,0.69041 0.17129,-0.5334 0.4733,-0.95486 0.86621,-1.39886 0.1465,0.30953 0.0406,0.51612 -0.0661,0.70845 z m 0,0"
             id="path223"
             style="fill:#c2a3ff;fill-opacity:1;stroke-width:0.192325" />
          <path
             d="m 169.05585,167.67359 c -0.2945,0.14575 -0.3516,0.38015 -0.45903,0.57172 -0.66487,1.04652 -1.47849,1.9518 -2.4897,2.68954 -0.27346,0.2051 -0.54768,0.41019 -0.95486,0.4733 -0.0729,-0.14725 -0.16002,-0.27722 -0.18707,-0.42822 -0.015,-0.18181 7.5e-4,-0.36662 0.0323,-0.55294 0.1465,-0.65285 0.293,-1.30645 0.45452,-1.96081 0.0436,-0.21787 0.148,-0.44024 0.0992,-0.66562 -0.5304,-0.14049 -0.6799,-0.0984 -0.87748,0.29975 -0.36512,0.77757 -0.63633,1.5942 -0.76705,2.44463 -0.008,0.0924 -0.0158,0.18481 -0.024,0.27722 -0.0316,0.75127 0.31854,1.12014 1.08033,1.09009 0.53415,-0.012 0.99392,-0.18631 1.42741,-0.49584 0.99543,-0.73699 1.82558,-1.62799 2.40856,-2.74438 0.12021,-0.22313 0.2081,-0.45978 0.27948,-0.70995 0.0255,-0.0631 -0.012,-0.15175 -0.0225,-0.28849 z m -3.32963,-1.32298 c 0.0706,-0.0669 0.12697,-0.13222 0.16604,-0.21186 0.0886,-0.2359 0.16152,-0.47104 0.27571,-0.75502 -0.43423,-0.0879 -0.79785,-0.0436 -1.13141,0.1818 -0.26069,0.17355 -0.3238,0.52965 -0.17054,0.73174 0.20435,0.25844 0.61905,0.28698 0.8602,0.0533 z m 0,0"
             id="path224"
             style="fill:#c2a3ff;fill-opacity:1;stroke-width:0.192325" />
          <path
             d="m 172.1324,169.85789 c -0.28097,0.11419 -0.56195,0.22763 -0.891,0.13222 0.0729,-0.23515 0.13222,-0.45376 0.19232,-0.65736 0.14199,-0.51537 0.25393,-1.02849 0.22689,-1.56113 -0.0248,-0.68591 -0.31403,-1.06004 -0.80461,-1.08183 -0.13824,-0.005 -0.27346,0.0218 -0.40794,0.0631 -0.41771,0.12471 -0.76029,0.42747 -1.0653,0.81813 -0.31854,0.40794 -0.54167,0.86846 -0.47931,1.45971 -0.14499,0.28623 -0.29149,0.55819 -0.42221,0.8279 -0.14049,0.34784 -0.27947,0.70995 -0.30877,1.10962 -0.0323,0.55294 0.13297,0.90603 0.52213,0.99769 0.23439,0.0571 0.49208,0.0368 0.71671,-0.0271 0.3591,-0.0894 0.67389,-0.3591 0.95336,-0.68741 0.22463,-0.24717 0.44775,-0.50936 0.69943,-0.80461 1.01496,-0.11118 1.13366,-0.15175 1.483,-0.56119 -0.23815,-0.11871 -0.23815,-0.11871 -0.4147,-0.0278 z m -3.0216,1.76924 c -0.15025,0.027 -0.27947,-0.0541 -0.296,-0.2667 -0.0308,-0.19609 -0.0331,-0.4102 -0.003,-0.61154 0.0744,-0.40268 0.18105,-0.79334 0.39516,-1.17723 0.22689,0.16527 0.39066,0.30501 0.56871,0.42822 0.17655,0.10818 0.36888,0.21486 0.56045,0.32229 -0.21561,0.55143 -0.83616,1.19752 -1.22532,1.30496 z m 1.5371,-1.8038 c -0.37939,-0.15326 -0.62731,-0.39291 -0.77156,-0.85494 -0.0826,-0.26896 -0.0992,-0.48082 0.003,-0.73399 0.21937,-0.50636 0.50635,-0.92632 0.91805,-1.12766 0.20585,0.0909 0.25543,0.33131 0.27421,0.55895 0.0616,0.77455 -0.0954,1.48976 -0.42371,2.15764 z m 0,0"
             id="path225"
             style="fill:#c2a3ff;fill-opacity:1;stroke-width:0.192325" />
          <path
             d="m 177.37414,169.30119 c -0.4763,0.34408 -0.86621,0.81813 -1.46572,1.1562 0.0511,-0.30952 0.0789,-0.54092 0.13898,-0.74451 0.19082,-0.67238 0.39667,-1.34552 0.57247,-2.0164 0.0729,-0.23515 0.12922,-0.48382 0.15401,-0.74601 0.0278,-0.4147 -0.16753,-0.56721 -0.5935,-0.54843 -0.27497,0.007 -0.51312,0.0872 -0.71296,0.25543 -0.34258,0.30276 -0.70018,0.60628 -1.02548,0.93758 -0.38089,0.39743 -0.72798,0.83767 -1.09084,1.26364 -0.0714,0.0669 -0.15852,0.11945 -0.32981,0.27121 0.11044,-0.5289 0.21562,-0.93458 0.27497,-1.33651 0.0714,-0.44851 -0.0774,-0.58975 -0.5319,-0.53791 -0.0909,0.008 -0.16152,0.0744 -0.26595,0.11269 -0.15551,0.73099 -0.32605,1.46272 -0.45151,2.1907 -0.0811,0.51086 0.18256,0.74977 0.68891,0.58674 0.16453,-0.0436 0.32305,-0.16302 0.46654,-0.28172 0.22688,-0.21712 0.45151,-0.46429 0.66262,-0.69493 0.36286,-0.42597 0.72647,-0.85194 1.09084,-1.26363 0.2389,-0.26295 0.49584,-0.48232 0.75127,-0.73174 0.14349,0.2637 0.006,0.45753 -0.0406,0.64459 -0.17204,0.71671 -0.37413,1.43568 -0.54617,2.15239 -0.0564,0.24867 -0.0511,0.50785 -0.0458,0.76779 0.0195,0.24266 0.16753,0.36812 0.41245,0.37939 0.18331,7.5e-4 0.38089,-0.015 0.54316,-0.0894 0.22013,-0.10893 0.43874,-0.24867 0.62281,-0.43123 0.69492,-0.66712 1.38909,-1.34927 2.08326,-2.03068 0.0421,-0.0496 0.0676,-0.11269 0.14951,-0.24115 -0.69267,0.13147 -1.06605,0.61979 -1.51156,0.9759 z m 0,0"
             id="path226"
             style="fill:#c2a3ff;fill-opacity:1;stroke-width:0.192325" />
        </g>
      </g>
      <path
         d="m 332.00946,217.85082 c -0.14274,0.31704 -0.28548,0.63407 -0.46053,0.92331 -0.64684,1.09084 -1.44018,2.05547 -2.26733,2.9923 -1.35829,1.54461 -2.70306,3.07344 -4.0313,4.6158 -0.33582,0.39291 -0.65436,0.80085 -0.9421,1.22081 -0.1495,0.22613 -0.25092,0.49358 -0.32079,0.75878 -0.12095,0.40719 0.0533,0.66863 0.43198,0.82114 0.34634,0.12546 0.69643,0.11269 1.02924,0.0706 0.6228,-0.0496 1.18625,-0.2622 1.73092,-0.51988 2.54906,-1.18175 5.0643,-2.40632 7.52095,-3.77888 0.36662,-0.19684 0.71371,-0.43874 1.0623,-0.66488 0.0879,-0.0533 0.14124,-0.14875 0.22387,-0.26294 -0.43498,-0.0871 -0.43348,-0.0721 -0.81662,0.11119 -2.67828,1.28317 -5.35655,2.56708 -8.03557,3.83522 -0.45677,0.21937 -0.9451,0.4117 -1.4199,0.58675 -0.11945,0.0406 -0.25844,0.021 -0.39517,0.0316 -0.13673,-0.37113 0.0225,-0.67389 0.20059,-0.93233 0.3283,-0.48457 0.65736,-0.95411 1.03299,-1.41238 1.22683,-1.47249 2.46942,-2.94723 3.71127,-4.42122 0.53115,-0.6228 1.07957,-1.21705 1.56264,-1.8669 0.47105,-0.60252 0.90828,-1.24861 1.28392,-1.90522 0.444,-0.75352 0.0902,-1.16822 -0.71296,-1.27265 -0.0774,-0.009 -0.13748,-0.004 -0.21336,0.002 -0.40869,0.0473 -0.83541,0.0661 -1.23959,0.17505 -0.99994,0.29375 -1.9826,0.61679 -2.98178,0.92556 -0.1187,0.0398 -0.25694,0.0361 -0.42222,0.0646 0.12096,-0.39216 0.34709,-0.62355 0.57322,-0.85569 1.1562,-1.20804 2.3958,-2.33044 3.73756,-3.32361 0.49058,-0.36061 1.01647,-0.66187 1.54311,-0.96388 0.27872,-0.14425 0.55594,-0.30427 0.9218,-0.31779 0.34784,0.72047 -0.01,1.40638 -0.0759,2.11407 0.0909,-0.007 0.1833,7.7e-4 0.22763,-0.018 0.56195,-0.42672 0.88124,-1.01722 1.02699,-1.68585 0.10893,-0.54392 -0.17956,-0.90302 -0.76254,-0.93232 -0.4147,-0.0286 -0.83992,0.006 -1.22081,0.20434 -0.58674,0.30652 -1.20504,0.60027 -1.773,0.95111 -1.628,1.04652 -3.10424,2.26507 -4.49258,3.62863 -0.22614,0.23214 -0.45227,0.46428 -0.64534,0.72347 -0.18031,0.22838 -0.43499,0.47856 -0.25694,0.8001 0.1773,0.30652 0.4996,0.3268 0.80461,0.31779 0.44024,-0.0353 0.87974,-0.0857 1.31472,-0.18181 0.62806,-0.17204 1.23734,-0.38841 1.8639,-0.57622 0.52213,-0.16378 1.06004,-0.31403 1.70162,-0.5026 -0.01,0.26069 0.0331,0.41019 -0.0195,0.52063 z m 0,0"
         id="path227"
         style="fill:#ff5e8f;fill-opacity:1;stroke-width:0.192325" />
      <path
         d="m 342.11452,223.29314 c -0.4763,0.34408 -0.86621,0.81813 -1.46572,1.1562 0.0511,-0.30952 0.0789,-0.54092 0.13898,-0.74451 0.19082,-0.67238 0.39667,-1.34552 0.57247,-2.0164 0.0729,-0.23515 0.12922,-0.48382 0.15401,-0.74601 0.0278,-0.4147 -0.16753,-0.56721 -0.5935,-0.54843 -0.27497,0.007 -0.51312,0.0872 -0.71296,0.25543 -0.34258,0.30276 -0.70018,0.60628 -1.02548,0.93758 -0.38089,0.39743 -0.72798,0.83767 -1.09084,1.26364 -0.0714,0.0669 -0.15852,0.11945 -0.32981,0.27121 0.11044,-0.5289 0.21562,-0.93458 0.27497,-1.33651 0.0714,-0.44851 -0.0774,-0.58975 -0.5319,-0.53791 -0.0909,0.008 -0.16152,0.0744 -0.26595,0.11269 -0.15551,0.73099 -0.32605,1.46272 -0.45151,2.1907 -0.0811,0.51086 0.18256,0.74977 0.68891,0.58674 0.16453,-0.0436 0.32305,-0.16302 0.46654,-0.28172 0.22688,-0.21712 0.45151,-0.46429 0.66262,-0.69493 0.36286,-0.42597 0.72647,-0.85194 1.09084,-1.26363 0.2389,-0.26295 0.49584,-0.48232 0.75127,-0.73174 0.14349,0.2637 0.006,0.45753 -0.0406,0.64459 -0.17204,0.71671 -0.37413,1.43568 -0.54617,2.15239 -0.0563,0.24867 -0.0511,0.50785 -0.0458,0.76779 0.0195,0.24266 0.16753,0.36812 0.41245,0.37939 0.18331,7.5e-4 0.38089,-0.015 0.54316,-0.0894 0.22013,-0.10893 0.43874,-0.24867 0.62281,-0.43123 0.69492,-0.66712 1.38909,-1.34927 2.08326,-2.03068 0.0421,-0.0496 0.0676,-0.11269 0.14951,-0.24115 -0.69267,0.13147 -1.06605,0.61979 -1.51156,0.9759 z m 0,0"
         id="path228"
         style="fill:#ff5e8f;fill-opacity:1;stroke-width:0.192325" />
      <path
         d="m 348.80598,220.80341 c -0.4455,0.3561 -0.91129,0.63783 -1.46497,0.78959 -0.37488,0.0909 -0.7415,0.0894 -1.04502,-0.26821 0.21111,-0.61303 0.42522,-1.18024 0.62431,-1.74595 0.0631,-0.17279 0.1217,-0.39141 -0.0571,-0.53039 -0.17805,-0.12321 -0.39216,-0.12096 -0.59876,-0.0285 -0.10367,0.0391 -0.22162,0.0939 -0.29149,0.17655 -0.54692,0.60853 -0.87298,1.30721 -0.75953,2.15389 0.0285,0.16527 0.0406,0.31703 -0.0248,0.45977 -0.43648,0.84518 -0.87222,1.70463 -1.31021,2.53403 -0.0518,0.11119 -0.11569,0.26896 -0.36587,0.19758 -10e-4,-0.39742 -0.0188,-0.80836 0.009,-1.22306 0.0308,-0.56796 0.0609,-1.15094 0.0759,-1.73243 0.005,-0.1232 -0.0503,-0.2404 -0.11119,-0.43423 -0.11419,0.10067 -0.20284,0.13823 -0.24341,0.20284 -0.0654,0.14274 -0.12922,0.30051 -0.14575,0.46955 -0.11494,0.86471 -0.19758,1.74219 -0.29525,2.62117 -0.0218,0.10894 0.003,0.22914 0.0128,0.35084 0.0736,0.34559 0.31703,0.52439 0.64834,0.46729 0.21036,-0.0473 0.41771,-0.12471 0.5597,-0.25843 0.20209,-0.15401 0.38465,-0.3516 0.52062,-0.5612 0.36512,-0.59425 0.71521,-1.18776 1.0638,-1.79628 0.12096,-0.2081 0.24041,-0.43198 0.34784,-0.62356 1.83385,0.007 2.79397,-0.40643 3.46034,-1.43717 -0.2682,-0.10142 -0.43649,0.0804 -0.60928,0.21636 z m 0,0"
         id="path229"
         style="fill:#ff5e8f;fill-opacity:1;stroke-width:0.192325" />
      <path
         d="m 353.63734,220.08122 c -0.2945,0.14575 -0.3516,0.38015 -0.45903,0.57172 -0.66487,1.04652 -1.47849,1.9518 -2.4897,2.68954 -0.27346,0.2051 -0.54768,0.41019 -0.95486,0.4733 -0.0729,-0.14725 -0.16002,-0.27722 -0.18707,-0.42822 -0.015,-0.18181 7.5e-4,-0.36662 0.0323,-0.55294 0.1465,-0.65285 0.293,-1.30645 0.45452,-1.96081 0.0436,-0.21787 0.148,-0.44024 0.0992,-0.66562 -0.5304,-0.14049 -0.6799,-0.0984 -0.87748,0.29975 -0.36512,0.77757 -0.63633,1.5942 -0.76705,2.44463 -0.008,0.0924 -0.0158,0.18481 -0.024,0.27722 -0.0316,0.75127 0.31854,1.12014 1.08033,1.09009 0.53415,-0.012 0.99392,-0.18631 1.42741,-0.49584 0.99543,-0.73699 1.82558,-1.62799 2.40856,-2.74438 0.12021,-0.22313 0.2081,-0.45978 0.27948,-0.70995 0.0255,-0.0631 -0.012,-0.15175 -0.0225,-0.28849 z m -3.32963,-1.32298 c 0.0706,-0.0669 0.12697,-0.13222 0.16604,-0.21186 0.0886,-0.2359 0.16152,-0.47104 0.27571,-0.75502 -0.43423,-0.0879 -0.79785,-0.0436 -1.13141,0.1818 -0.26069,0.17355 -0.3238,0.52965 -0.17054,0.73174 0.20435,0.25844 0.61905,0.28698 0.8602,0.0533 z m 0,0"
         id="path230"
         style="fill:#ff5e8f;fill-opacity:1;stroke-width:0.192325" />
      <path
         d="m 358.91361,220.14918 c -0.27271,0.22013 -0.52965,0.45452 -0.7693,0.70319 -0.80085,0.87373 -1.58593,1.76173 -2.38678,2.63545 -0.15476,0.16453 -0.31028,0.32981 -0.49283,0.52814 -0.40644,-0.50259 -0.6784,-1.03074 -0.87598,-1.59569 -0.17655,-0.48983 -0.13824,-0.96688 0.0541,-1.42516 0.2682,-0.66337 0.73173,-1.17348 1.37632,-1.51531 0.10293,-0.0541 0.24341,-0.0195 0.41019,-0.0331 -0.0331,0.35385 -0.0556,0.64609 -0.0977,1.07732 0.2081,-0.0774 0.38991,-0.0924 0.44475,-0.17279 0.17955,-0.24342 0.3268,-0.50035 0.44175,-0.78433 0.0879,-0.2359 -0.021,-0.45677 -0.27422,-0.55894 -0.14124,-0.0496 -0.31177,-0.0819 -0.46503,-0.0849 -1.25312,-0.007 -2.64973,1.06756 -2.96601,2.26884 -0.10518,0.40568 -0.14725,0.83691 0.0376,1.23508 0.17054,0.41395 0.37263,0.84067 0.60252,1.23509 0.21411,0.38014 0.45677,0.743 0.68591,1.12164 -0.16678,0.21186 -0.30502,0.39141 -0.4425,0.58524 -0.27196,0.41921 -0.55969,0.83917 -0.81437,1.28767 -0.10668,0.19158 -0.148,0.4395 -0.16002,0.67013 -0.0203,0.3223 0.17654,0.48983 0.52964,0.50711 0.27572,0.009 0.54392,-0.0736 0.79109,-0.23064 0.36286,-0.24341 0.69116,-0.52889 0.95185,-0.90152 0.30352,-0.40644 0.45076,-0.86095 0.33357,-1.37107 -0.024,-0.10517 -0.0488,-0.22538 -0.0736,-0.34558 0.16678,-0.21186 0.31929,-0.40719 0.4718,-0.60327 0.99017,-1.17874 1.9826,-2.3432 2.95774,-3.52119 0.15401,-0.18031 0.30878,-0.34484 0.44551,-0.53941 0.0548,-0.0811 0.0616,-0.18857 0.0984,-0.29826 -0.34708,-0.14049 -0.60176,-0.0744 -0.81437,0.12621 z m -3.91712,6.43988 c -0.15701,0.33281 -0.39516,0.59651 -0.8001,0.69041 0.17129,-0.5334 0.4733,-0.95486 0.86621,-1.39886 0.1465,0.30953 0.0406,0.51612 -0.0661,0.70845 z m 0,0"
         id="path231"
         style="fill:#ff5e8f;fill-opacity:1;stroke-width:0.192325" />
      <path
         d="m 363.41368,219.30057 c -0.2945,0.14575 -0.3516,0.38015 -0.45903,0.57172 -0.66487,1.04652 -1.47849,1.9518 -2.4897,2.68954 -0.27346,0.2051 -0.54768,0.41019 -0.95486,0.4733 -0.0729,-0.14725 -0.16002,-0.27722 -0.18707,-0.42822 -0.015,-0.18181 7.5e-4,-0.36662 0.0323,-0.55294 0.1465,-0.65285 0.293,-1.30645 0.45452,-1.96081 0.0436,-0.21787 0.148,-0.44024 0.0992,-0.66562 -0.5304,-0.14049 -0.6799,-0.0984 -0.87748,0.29975 -0.36512,0.77757 -0.63633,1.5942 -0.76705,2.44463 -0.008,0.0924 -0.0158,0.18481 -0.024,0.27722 -0.0316,0.75127 0.31854,1.12014 1.08033,1.09009 0.53415,-0.012 0.99392,-0.18631 1.42741,-0.49584 0.99543,-0.73699 1.82558,-1.62799 2.40856,-2.74438 0.12021,-0.22313 0.2081,-0.45978 0.27948,-0.70995 0.0255,-0.0631 -0.012,-0.15175 -0.0225,-0.28849 z m -3.32963,-1.32298 c 0.0706,-0.0669 0.12697,-0.13222 0.16604,-0.21186 0.0886,-0.2359 0.16152,-0.47104 0.27571,-0.75502 -0.43423,-0.0879 -0.79785,-0.0436 -1.13141,0.1818 -0.26069,0.17355 -0.3238,0.52965 -0.17054,0.73174 0.20435,0.25844 0.61905,0.28698 0.8602,0.0533 z m 0,0"
         id="path232"
         style="fill:#ff5e8f;fill-opacity:1;stroke-width:0.192325" />
      <path
         d="m 366.49023,221.48487 c -0.28097,0.11419 -0.56195,0.22763 -0.891,0.13222 0.0729,-0.23515 0.13222,-0.45376 0.19232,-0.65736 0.14199,-0.51537 0.25393,-1.02849 0.22689,-1.56113 -0.0248,-0.68591 -0.31403,-1.06004 -0.80461,-1.08183 -0.13824,-0.005 -0.27346,0.0218 -0.40794,0.0631 -0.41771,0.12471 -0.76029,0.42747 -1.0653,0.81813 -0.31854,0.40794 -0.54167,0.86846 -0.47931,1.45971 -0.14499,0.28623 -0.29149,0.55819 -0.42221,0.8279 -0.14049,0.34784 -0.27947,0.70995 -0.30877,1.10962 -0.0323,0.55294 0.13297,0.90603 0.52213,0.99769 0.23439,0.0571 0.49208,0.0368 0.71671,-0.0271 0.3591,-0.0894 0.67389,-0.3591 0.95336,-0.68741 0.22463,-0.24717 0.44775,-0.50936 0.69943,-0.80461 1.01496,-0.11118 1.13366,-0.15175 1.483,-0.56119 -0.23815,-0.11871 -0.23815,-0.11871 -0.4147,-0.0278 z m -3.0216,1.76924 c -0.15025,0.027 -0.27947,-0.0541 -0.296,-0.2667 -0.0308,-0.19609 -0.0331,-0.4102 -0.003,-0.61154 0.0744,-0.40268 0.18105,-0.79334 0.39516,-1.17723 0.22689,0.16527 0.39066,0.30501 0.56871,0.42822 0.17655,0.10818 0.36888,0.21486 0.56045,0.32229 -0.21561,0.55143 -0.83616,1.19752 -1.22532,1.30496 z m 1.5371,-1.8038 c -0.37939,-0.15326 -0.62731,-0.39291 -0.77156,-0.85494 -0.0826,-0.26896 -0.0992,-0.48082 0.003,-0.73399 0.21937,-0.50636 0.50635,-0.92632 0.91805,-1.12766 0.20585,0.0909 0.25543,0.33131 0.27421,0.55895 0.0616,0.77455 -0.0954,1.48976 -0.42371,2.15764 z m 0,0"
         id="path233"
         style="fill:#ff5e8f;fill-opacity:1;stroke-width:0.192325" />
      <path
         d="m 371.73197,220.92817 c -0.4763,0.34408 -0.86621,0.81813 -1.46572,1.1562 0.0511,-0.30952 0.0789,-0.54092 0.13898,-0.74451 0.19082,-0.67238 0.39667,-1.34552 0.57247,-2.0164 0.0729,-0.23515 0.12922,-0.48382 0.15401,-0.74601 0.0278,-0.4147 -0.16753,-0.56721 -0.5935,-0.54843 -0.27497,0.007 -0.51312,0.0872 -0.71296,0.25543 -0.34258,0.30276 -0.70018,0.60628 -1.02548,0.93758 -0.38089,0.39743 -0.72798,0.83767 -1.09084,1.26364 -0.0714,0.0669 -0.15852,0.11945 -0.32981,0.27121 0.11044,-0.5289 0.21562,-0.93458 0.27497,-1.33651 0.0714,-0.44851 -0.0774,-0.58975 -0.5319,-0.53791 -0.0909,0.008 -0.16152,0.0744 -0.26595,0.11269 -0.15551,0.73099 -0.32605,1.46272 -0.45151,2.1907 -0.0811,0.51086 0.18256,0.74977 0.68891,0.58674 0.16453,-0.0436 0.32305,-0.16302 0.46654,-0.28172 0.22688,-0.21712 0.45151,-0.46429 0.66262,-0.69493 0.36286,-0.42597 0.72647,-0.85194 1.09084,-1.26363 0.2389,-0.26295 0.49584,-0.48232 0.75127,-0.73174 0.14349,0.2637 0.006,0.45753 -0.0406,0.64459 -0.17204,0.71671 -0.37413,1.43568 -0.54617,2.15239 -0.0564,0.24867 -0.0511,0.50785 -0.0458,0.76779 0.0195,0.24266 0.16753,0.36812 0.41245,0.37939 0.18331,7.5e-4 0.38089,-0.015 0.54316,-0.0894 0.22013,-0.10893 0.43874,-0.24867 0.62281,-0.43123 0.69492,-0.66712 1.38909,-1.34927 2.08326,-2.03068 0.0421,-0.0496 0.0676,-0.11269 0.14951,-0.24115 -0.69267,0.13147 -1.06605,0.61979 -1.51156,0.9759 z m 0,0"
         id="path234"
         style="fill:#ff5e8f;fill-opacity:1;stroke-width:0.192325" />
      <text
         xml:space="preserve"
         style="font-weight:bold;font-size:8.17488px;line-height:0.9;font-family:Poppins;-inkscape-font-specification:'Poppins Bold';letter-spacing:0px;fill:#8c51ff;fill-opacity:0.529412;stroke:none;stroke-width:0.108139"
         x="357.79388"
         y="232.1468"
         id="text234"><tspan
           id="tspan234"
           style="font-style:normal;font-variant:normal;font-weight:normal;font-stretch:normal;font-family:VanDoesburgArchiType;-inkscape-font-specification:VanDoesburgArchiType;fill:#8c51ff;fill-opacity:0.529412;stroke:none;stroke-width:0.108139"
           x="357.79388"
           y="232.1468">2.0</tspan></text>
      <text
         xml:space="preserve"
         style="font-weight:bold;font-size:8.17488px;line-height:0.9;font-family:Poppins;-inkscape-font-specification:'Poppins Bold';letter-spacing:0px;fill:#180033;fill-opacity:1;stroke:none;stroke-width:0.108139"
         x="357.48807"
         y="231.72629"
         id="text235"><tspan
           id="tspan235"
           style="font-style:normal;font-variant:normal;font-weight:normal;font-stretch:normal;font-family:VanDoesburgArchiType;-inkscape-font-specification:VanDoesburgArchiType;fill:#180033;fill-opacity:1;stroke:none;stroke-width:0.108139"
           x="357.48807"
           y="231.72629">2.0</tspan></text>
    </g>
  </g>
</svg>
