<?xml version="1.0" encoding="UTF-8" standalone="no"?>
<!-- Created with Inkscape (http://www.inkscape.org/) -->

<svg
   width="49.779343mm"
   height="28.826244mm"
   viewBox="0 0 49.779343 28.826244"
   version="1.1"
   id="svg1"
   inkscape:version="1.3 (0e150ed6c4, 2023-07-21)"
   sodipodi:docname="HE2.0 Brand guidelines.svg"
   xmlns:inkscape="http://www.inkscape.org/namespaces/inkscape"
   xmlns:sodipodi="http://sodipodi.sourceforge.net/DTD/sodipodi-0.dtd"
   xmlns="http://www.w3.org/2000/svg"
   xmlns:svg="http://www.w3.org/2000/svg">
  <sodipodi:namedview
     id="namedview1"
     pagecolor="#505050"
     bordercolor="#eeeeee"
     borderopacity="1"
     inkscape:showpageshadow="0"
     inkscape:pageopacity="0"
     inkscape:pagecheckerboard="0"
     inkscape:deskcolor="#505050"
     inkscape:document-units="mm"
     inkscape:zoom="0.57103676"
     inkscape:cx="403.65177"
     inkscape:cy="766.15033"
     inkscape:window-width="1600"
     inkscape:window-height="837"
     inkscape:window-x="-8"
     inkscape:window-y="-8"
     inkscape:window-maximized="1"
     inkscape:current-layer="layer1" />
  <defs
     id="defs1" />
  <g
     inkscape:label="Layer 1"
     inkscape:groupmode="layer"
     id="layer1"
     transform="translate(-250.5783,-203.32055)">
    <g
       id="g214"
       transform="matrix(0.07224175,0,0,0.07224175,203.45243,243.32129)"
       inkscape:export-filename="HE2.0 Dark.png"
       inkscape:export-xdpi="1200"
       inkscape:export-ydpi="1200">
      <g
         id="g213"
         transform="matrix(2.6622384,0,0,2.6622384,493.94908,-886.76093)">
        <g
           fill="#000000"
           fill-opacity="1"
           id="g157"
           style="fill:#ffffff;fill-opacity:1">
          <g
             transform="translate(95.880087,194.62655)"
             id="g156"
             style="fill:#ffffff;fill-opacity:1">
            <g
               id="g155"
               style="fill:#ffffff;fill-opacity:1">
              <path
                 d="m 33.152344,0.195312 0.78125,-0.0976558 h 1.949218 L 37.152344,0 37.734375,-0.0976562 h 1.464844 l 1.167969,-0.2929688 0.390624,-0.585937 0.195313,-0.679688 V -2.4375 l 0.195313,-0.683594 0.09766,-0.777344 0.292968,-0.488281 0.195313,-1.171875 0.09766,-1.070312 0.195313,-0.683594 0.195312,-1.269531 0.09766,-0.679688 0.292969,-1.367187 0.09766,-1.558594 0.09766,-1.367188 L 43,-14.140625 l 0.292969,-1.070313 0.292969,-1.367187 0.09766,-0.679687 v -0.78125 l 0.292968,-1.367188 0.09766,-0.679688 0.195312,-0.585937 0.195313,-0.683594 -0.09766,-0.585937 0.585937,-2.046875 -0.09766,-0.585938 0.195312,-0.679687 0.292969,-1.367188 0.191406,-1.070312 v -0.585938 l 0.390625,-1.753906 0.09766,-0.683594 0.488281,-1.269531 0.09766,-0.679687 v -1.269532 l 0.09766,-0.683594 L 47,-35.199219 46.804688,-35.882812 v -0.78125 l 0.390624,-0.585938 0.09766,-0.679688 0.292969,-1.367187 0.09766,-0.585937 0.09766,-1.460938 0.484375,-1.367188 0.09766,-1.460937 0.195313,-1.558594 L 48.753906,-47 l 0.09766,-0.585938 0.488282,-1.167968 0.09766,-0.585938 0.195312,-1.269531 0.09766,-0.777344 0.195312,-0.683593 0.09766,-0.683594 0.292968,-1.265625 0.09766,-0.683594 0.195313,-1.265625 v -0.683594 l 0.09375,-1.269531 0.195313,-0.777344 0.195312,-0.683593 0.09766,-0.683594 v -0.78125 l 0.09766,-1.363282 0.390626,-1.171874 V -64.0625 l 0.09766,-0.585938 -0.09766,-0.390624 0.390624,-0.585938 -0.09766,-0.679688 0.09766,-0.585937 -0.683593,-0.878906 -0.683594,-0.292969 -1.558594,-0.195312 h -2.730469 l -1.949218,-0.09766 h -3.511719 l -0.875,0.09766 -0.585937,0.09766 -0.78125,0.878906 -0.09766,0.585938 0.09766,0.679687 -0.195313,0.683594 -0.390625,0.878906 -0.09766,0.585937 -0.195313,1.265626 -0.191406,0.585937 -0.292969,1.265625 v 0.78125 l -0.390625,1.367188 -0.09766,0.679687 0.09766,0.78125 v 1.171875 l -0.390625,0.875 -0.09766,1.269531 -0.292969,1.265625 v 0.68359 l -0.195312,0.585938 -0.09766,0.679687 -0.09766,0.78125 -0.09766,0.683594 -0.09766,0.585937 -0.488282,1.265625 0.195313,0.585938 -0.484375,1.460937 -0.09766,0.683594 v 0.683594 L 34.324219,-43 l -0.195313,1.070312 -0.09766,0.488282 -2.046875,-0.09766 -0.78125,0.09766 -1.171875,-0.09766 -0.777344,0.09766 -2.828125,-0.09766 h -0.78125 l -0.683593,-0.09766 0.195312,-0.78125 0.09766,-0.582031 0.195313,-0.78125 -0.09766,-0.585938 0.195313,-0.683593 0.292969,-1.265625 L 25.742188,-47 l 0.292968,-0.585938 0.09766,-0.679687 0.195313,-0.78125 0.195313,-0.488281 v -0.585938 l 0.09766,-1.167968 0.195312,-0.488282 0.09766,-1.269531 0.195313,-0.777344 0.191406,-0.683593 v -1.558594 L 27.59375,-56.75 l 0.09766,-1.171875 0.195313,-1.363281 0.390625,-1.851563 0.09766,-0.878906 0.292969,-0.878906 0.09766,-1.363281 0.09766,-0.585938 0.292969,-1.171875 -0.09766,-0.679687 v -0.585938 l -0.195313,-0.878906 -0.976562,-0.195313 -1.167969,-0.195312 -0.976562,0.292969 h -2.144532 l -1.367187,-0.09766 -3.996094,0.09766 h -2.4375 l -0.878906,0.488281 -0.09766,1.074219 -0.09766,1.167968 -0.292968,1.269532 -0.191407,0.679687 0.09375,0.78125 -0.289062,0.683594 -0.09766,0.683593 L 13.75,-60.75 l 0.09766,1.367188 -0.683594,1.265624 v 2.050782 l -0.292968,1.265625 -0.09766,0.585937 -0.09766,0.78125 -0.390625,0.777344 v 1.367188 l -0.09766,0.488281 -0.292969,2.046875 -0.195312,0.777344 -0.191407,1.269531 -0.390624,2.046875 -0.09766,1.367187 -0.09766,0.679688 -0.585937,1.367187 -0.09766,1.363282 -0.195312,1.367187 -0.097657,0.585937 -0.488281,2.828126 -0.386719,1.363281 v 0.78125 l -0.292968,0.777343 -0.292969,0.683594 -0.195313,1.464844 v 0.679688 l -0.195312,1.171874 -0.292969,0.972657 -0.097656,1.269531 -0.390625,1.363281 0.097656,0.683594 -0.195312,0.78125 -0.097656,0.585937 -0.195313,0.582032 -0.484375,3.414062 -0.195312,0.78125 -0.292969,1.363282 v 0.78125 l -0.097657,0.683593 -0.390624,0.875 -0.390626,0.683594 0.097657,1.367187 -0.390625,1.363282 L 4.875,-9.847656 4.679688,-9.164062 4.09375,-8.09375 4.289062,-7.410156 4.09375,-6.824219 v 0.679688 l -0.195312,0.878906 -0.09375,0.976563 -0.488282,1.265624 -0.390625,0.878907 v 0.78125 l 0.390625,1.070312 1.949219,0.1953128 h 3.121094 l 1.167969,0.1953124 0.683593,-0.1953124 0.683594,-0.0976558 0.683594,0.2929682 h 0.777343 l 1.464844,-0.1953124 1.167969,-0.0976558 0.878906,-0.097657 0.78125,-0.390625 0.484375,-0.972656 0.195313,-1.464844 0.09766,-0.683594 0.195313,-0.777343 0.195312,-1.367188 v -0.679687 l 0.292969,-1.367188 0.09766,-0.78125 0.585937,-2.730468 0.195313,-1.460938 0.390625,-1.269531 0.09375,-0.484375 0.488281,-1.171875 -0.09766,-0.585938 0.585937,-2.144531 0.488282,-2.242188 0.195312,-0.683593 v -1.65625 l 0.390625,-0.683594 0.195313,-1.265625 0.386718,-1.367188 0.09766,-0.777343 0.09766,-0.488281 1.660156,0.09766 1.460938,0.292968 3.121093,-0.292968 0.878907,0.195312 h 0.679687 l 0.878906,-0.09766 -0.195312,1.167969 v 0.683593 l -0.195312,1.363282 -0.195313,0.683594 -0.292969,1.367187 v 1.167969 l -0.195312,0.976562 -0.386719,1.070313 -0.585937,2.925781 -0.195313,1.855469 -0.292969,1.460937 -0.09766,1.363282 -0.195312,0.488281 -0.09766,1.269531 -0.09766,0.679688 v 0.683593 l -0.09766,0.683594 -0.390625,2.046875 v 1.367188 l -0.386719,0.679687 -0.195313,0.878906 -0.09766,0.878907 -0.09766,0.777343 0.582031,0.878907 0.683594,0.0976558 h 0.683594 L 29.742188,0 H 32.375 Z m 0,0"
                 id="path154"
                 style="fill:#ffffff;fill-opacity:1" />
            </g>
          </g>
        </g>
        <g
           fill="#000000"
           fill-opacity="1"
           id="g160"
           style="fill:#ffffff;fill-opacity:1">
          <g
             transform="translate(144.92394,194.62655)"
             id="g159"
             style="fill:#ffffff;fill-opacity:1">
            <g
               id="g158"
               style="fill:#ffffff;fill-opacity:1">
              <path
                 d="m 7.898438,0.195312 0.78125,-0.0976558 2.730468,0.0976558 0.582032,-0.390624 0.390624,-0.683594 0.292969,-0.484375 0.292969,-1.074219 0.585938,-1.460938 0.972656,-1.855468 0.390625,-1.167969 0.292969,-0.683594 0.195312,-0.683593 0.683594,-1.265626 0.488281,-1.074218 h 2.632813 l 4.289062,0.09766 1.558594,0.195312 2.148437,0.09766 0.09375,0.78125 V -4.875 l -0.09375,0.976562 0.09375,0.972657 0.09766,1.753906 0.195312,0.976563 0.390625,0.2929682 h 1.464844 L 30.714844,0.195312 31.691406,0.0976562 32.375,0 33.542969,0.0976562 h 0.78125 L 36.46875,0 h 1.363281 L 38.613281,0.0976562 39.296875,0 c 0.390625,0 0.683594,0.0976562 1.070313,0 0.488281,-0.292969 0.390624,-1.171875 0.292968,-1.558594 V -3.609375 L 40.5625,-5.753906 v -0.875 l -0.09766,-0.78125 0.09766,-1.367188 v -1.460937 l -0.09766,-0.683594 -0.09766,-1.265625 v -0.585938 l -0.191407,-3.707031 0.09766,-0.679687 -0.09766,-1.367188 0.09766,-1.460937 -0.09766,-1.464844 v -0.679687 l -0.09766,-4.488282 v -2.925781 l -0.09766,-0.777344 -0.09766,-1.171875 v -3.800781 l -0.195312,-1.074219 -0.09766,-1.558594 v -0.585937 l -0.09766,-1.269531 0.09766,-0.582032 -0.09766,-1.367187 v -1.949219 l -0.195313,-1.367187 v -2.144531 l 0.09766,-0.683594 -0.09766,-1.460938 v -1.363281 l -0.195313,-1.953125 -0.09766,-1.265625 v -1.367187 l -0.09766,-3.507813 v -1.757813 l -0.195312,-0.582031 v -2.148437 L 38.417969,-67.476562 37.734375,-67.964844 37.25,-68.160156 h -1.5625 l -0.875,0.09766 -0.683594,-0.195312 H 33.25 l -1.851562,0.09766 h -1.558594 l -0.976563,0.09766 -1.851562,-0.09766 h -0.976563 l -0.683594,0.09766 -0.390624,1.074219 -0.289063,0.585937 -0.292969,0.679688 -0.878906,1.757812 -0.683594,1.265625 -0.585937,1.753907 -0.191407,0.488281 -0.390624,0.585937 -0.585938,1.074219 -0.195312,0.679687 -0.195313,0.585938 -0.292969,0.585938 -0.195312,0.683593 -0.875,1.753907 -0.292969,0.683593 -0.292969,0.972657 -0.585937,0.878906 -0.292969,0.585937 -0.488281,1.265625 -0.777344,2.046875 -0.390625,0.585938 -0.488281,0.683593 -0.292969,1.363282 -0.585938,1.269531 -0.195312,0.488281 -0.292969,1.265625 -0.484375,0.683594 -0.292968,1.269531 -0.292969,0.582032 -0.585938,1.074218 -0.488281,1.65625 -0.679688,1.269532 -0.292968,0.78125 -0.78125,2.726562 -0.292969,0.585938 -0.488281,1.367187 -0.292969,0.582031 -0.289063,0.683594 -0.097656,0.585938 -0.585937,1.363281 -0.195313,0.683593 -0.585937,1.171876 -0.488281,0.777343 -0.195313,0.878907 -0.195313,0.683593 -0.679687,1.363281 -0.292969,0.683594 -0.488281,1.269532 -0.292969,0.582031 -0.097656,0.683593 -0.195312,0.585938 -0.488282,1.167969 -0.484375,0.683593 -0.195312,0.585938 -0.78125,1.753906 -0.390625,1.269532 -1.070313,2.339843 -0.488281,1.167969 -0.585938,1.171875 -0.976562,2.925781 -0.777344,1.265625 -0.585937,1.171875 -0.097657,0.585938 -0.195312,0.679687 0.195312,0.78125 0.878907,0.1953128 L 5.753906,0 6.4375,0.0976562 Z m 16.089843,-23.5 -0.878906,-0.09766 L 22.039062,-23.5 h -0.78125 l -0.683593,-0.585938 0.292969,-0.679687 0.195312,-0.878906 0.195312,-0.683594 0.488282,-1.65625 0.386718,-0.683594 0.488282,-1.460937 0.09766,-0.683594 0.585938,-2.144531 0.292968,-0.878907 0.292969,-0.683593 0.292969,-0.875 0.390625,-0.683594 0.09766,-0.683594 0.386719,-0.972656 0.390625,-0.78125 0.488281,-1.5625 0.292969,-0.972656 0.488281,-1.5625 0.390625,-1.265625 0.777344,-0.292969 0.09766,2.242187 -0.09766,3.511719 -0.09766,3.703125 0.09766,2.339844 -0.195313,0.78125 v 1.660156 l -0.09766,0.679688 v 2.535156 l -0.09766,0.78125 0.09766,0.78125 -0.09766,1.363281 -0.582032,0.488281 z m 0,0"
                 id="path157"
                 style="fill:#ffffff;fill-opacity:1" />
            </g>
          </g>
        </g>
        <g
           fill="#000000"
           fill-opacity="1"
           id="g163"
           style="fill:#ffffff;fill-opacity:1">
          <g
             transform="translate(188.41011,194.62655)"
             id="g162"
             style="fill:#ffffff;fill-opacity:1">
            <g
               id="g161"
               style="fill:#ffffff;fill-opacity:1">
              <path
                 d="m 21.355469,1.171875 0.972656,-0.195313 1.269531,-0.097656 h 1.460938 l 1.269531,-0.292968 1.167969,-0.195313 1.171875,-0.2929688 2.535156,-0.5859372 0.683594,-0.292969 1.558593,-0.972656 1.464844,-1.269532 1.460938,-1.753906 0.195312,-0.585937 0.292969,-0.585938 0.488281,-0.582031 0.386719,-0.585938 0.292969,-0.683593 0.488281,-1.171875 0.585937,-1.558594 0.292969,-0.585938 0.195313,-0.679687 0.09766,-0.683594 0.292969,-1.171875 0.582031,-2.4375 0.195312,-0.585937 0.292969,-2.046875 0.09766,-0.390625 0.09766,-0.679688 0.195312,-0.488281 0.09766,-1.074219 0.195313,-1.265625 v -0.683594 l 0.195313,-0.585937 v -1.070313 l -0.390626,-0.683593 -0.683593,-0.683594 -1.167969,-0.09766 -4.777344,-0.292969 H 32.85939 l -2.535156,-0.09766 -0.777344,0.09766 -0.683594,0.78125 -0.195312,0.976562 -0.488281,1.265626 -0.09766,0.683593 -0.195312,0.878907 -0.292969,1.460937 -0.292969,1.171875 -0.09375,0.484375 -0.09766,0.585937 -0.390625,1.269532 -0.488281,1.363281 -0.78125,1.753906 -0.390625,0.488281 -1.363282,0.878907 h -1.464843 l -1.558594,0.195312 -1.460937,-0.488281 -0.78125,-0.683594 -0.390626,-1.460937 v -0.683594 l -0.09766,-0.585937 v -0.972657 l 0.09766,-1.367187 0.292969,-1.363282 v -0.78125 l 0.292969,-2.046874 -0.09766,-0.683594 0.195312,-0.683594 0.09766,-0.679688 v -0.78125 l 0.09766,-0.683593 0.292969,-0.683594 V -29.15625 L 19.5,-30.617188 l 0.195312,-0.78125 0.195313,-1.265624 0.09766,-0.683594 0.390625,-1.5625 0.09766,-0.777344 0.78125,-3.902344 0.488282,-1.460937 0.195312,-1.367188 0.191406,-0.679687 0.09766,-0.585938 0.09766,-0.683594 0.292969,-0.878906 0.292968,-1.167968 0.292969,-1.464844 0.390625,-1.167969 v -0.585937 l 0.585938,-1.65625 0.488281,-1.269532 0.386719,-1.65625 0.292968,-0.683594 0.292969,-0.585937 0.878907,-1.070313 1.070312,-0.390624 1.171875,-0.195313 h 1.074219 l 1.363281,0.390625 1.074219,0.585938 0.582031,1.753906 v 1.460937 l -0.195313,1.367188 -0.09766,1.265625 -0.582031,2.148437 -0.195313,1.363281 -0.390624,1.753907 -0.195313,0.683593 V -43 l 0.683594,1.070312 2.828125,0.390626 6.140625,0.09766 1.367187,-0.09766 1.167969,-0.09766 0.390625,-0.390625 0.488281,-2.535156 0.195313,-0.78125 0.585937,-3.800781 0.195313,-1.558594 0.195312,-1.464844 0.191406,-0.78125 0.09766,-0.972656 v -2.144531 l -0.09766,-1.464844 -0.09766,-0.878906 -0.09375,-1.265625 -0.09766,-1.171875 -0.195312,-1.070313 -0.488282,-0.976562 -0.195312,-0.683594 -0.292969,-0.484375 -0.488281,-0.878906 -0.195313,-0.488282 -1.070312,-0.972656 -1.269531,-0.976562 -1.363282,-0.488282 -1.074218,-0.195312 -0.390626,-0.292969 -0.679687,-0.09766 -0.683594,-0.195313 -0.585937,-0.09766 -1.363282,-0.191406 H 34.03125 l -0.878906,-0.292969 -2.4375,-0.292969 H 29.15625 l -1.855469,0.09766 h -1.460937 l -0.683594,0.09766 -1.265625,0.292969 -1.660156,0.289062 -2.046875,0.878906 -0.585938,0.292969 -1.265625,0.585938 -0.585937,0.488281 -1.363282,1.363281 -0.78125,0.976563 -0.683593,0.972656 -0.679688,0.585938 -0.390625,1.074218 -0.585937,1.363282 -0.488281,1.171874 -0.585938,1.65625 -0.390625,1.367188 -0.582031,1.949219 -0.683594,1.949219 -0.292969,1.269531 -0.292969,0.679687 -0.097656,0.683594 -0.097656,0.585938 -0.195312,0.683593 -0.097657,0.679688 -0.292969,0.585937 -0.09375,0.976563 -0.195312,1.070312 -0.195312,0.683594 -0.488282,1.949219 v 1.367187 l -0.292968,0.582031 v 0.585938 l -0.097657,1.171875 -0.292969,0.972656 -0.195312,1.074219 -0.292969,1.074219 v 0.386719 l -0.097656,0.292968 v 1.367188 l -0.390625,0.585937 -0.289062,1.753907 0.097656,0.488281 -0.292969,1.070312 -0.195313,0.78125 0.097657,0.878907 -0.390625,1.363281 -0.195313,2.046875 -0.097656,0.585937 v 0.683594 l -0.195313,1.363281 -0.097656,1.367188 -0.097656,0.78125 -0.097656,2.046875 v 2.535156 l -0.097656,0.683594 v 0.875 l 0.097656,0.78125 v 1.851562 l 0.195312,0.683594 0.195313,1.265625 0.195312,0.585938 0.292969,1.269531 0.875,1.265625 0.683594,1.367187 0.488281,0.488281 0.390625,0.484376 1.265625,0.976562 0.585937,0.390625 0.488282,0.390625 0.976562,0.582031 0.582032,0.488281 1.171874,0.390626 1.265626,0.488281 0.585937,0.097656 0.683594,0.195313 0.976562,0.097656 0.582031,0.097656 0.78125,0.097656 1.074219,0.097656 0.679688,0.097657 h 0.683593 z m 0,0"
                 id="path160"
                 style="fill:#ffffff;fill-opacity:1" />
            </g>
          </g>
        </g>
        <g
           fill="#000000"
           fill-opacity="1"
           id="g166"
           style="fill:#ffffff;fill-opacity:1">
          <g
             transform="translate(230.92127,194.62655)"
             id="g165"
             style="fill:#ffffff;fill-opacity:1">
            <g
               id="g164"
               style="fill:#ffffff;fill-opacity:1">
              <path
                 d="M 4.289062,0 5.265625,-0.0976562 6.144531,0 H 7.996094 L 8.679688,-0.0976562 8.972656,0 H 9.554688 L 10.921875,-0.0976562 12.089844,0 12.96875,-0.0976562 h 2.535156 L 16.578125,-0.488281 17.0625,-2.4375 v -1.171875 l 0.390625,-1.070313 0.390625,-1.367187 0.09766,-1.265625 0.09766,-0.683594 0.195313,-0.585937 0.292969,-1.167969 0.292968,-1.5625 0.195313,-2.046875 0.195313,-0.585937 L 19.5,-14.625 l 0.09766,-1.269531 0.09766,-0.78125 0.09766,-1.363281 0.195312,-0.78125 0.292969,-1.363282 v -0.585937 l 0.09766,-0.683594 0.195313,-1.167969 0.195312,-1.269531 0.195313,-2.046875 0.195312,-0.585938 0.09766,-0.683593 0.195313,-0.777344 0.09766,-0.585937 h 0.292969 l 0.582031,1.460937 0.878907,2.535156 0.292968,0.78125 0.292969,0.878907 0.09766,0.78125 0.488281,1.070312 v 0.683594 l 0.484376,1.070312 0.292968,0.683594 0.09766,0.585938 0.195313,1.265624 0.585937,1.269532 0.390626,1.171875 0.390624,1.363281 0.484376,1.363281 0.195312,0.585938 0.195312,0.683593 0.292969,1.265626 0.390625,0.78125 0.390625,1.171874 0.78125,2.730469 0.875,2.339844 0.292969,1.265625 0.390625,0.585938 L 32.375,0 34.519531,-0.0976562 35.199219,0 H 37.25 L 38.125,-0.0976562 41.148438,0 h 2.4375 L 45.828125,-0.0976562 45.925781,-0.976562 45.730469,-1.460938 45.148438,-3.121094 44.757812,-4.191406 44.074219,-5.363281 43.78125,-6.4375 43.683594,-7.214844 43.390625,-7.703125 43.097656,-8.386719 V -9.164062 L 42.808594,-9.75 l -0.09766,-0.683594 -0.09766,-0.878906 -0.78125,-1.167969 v -0.585937 l -0.390625,-1.265625 -0.390625,-0.683594 v -0.585937 l -0.09766,-0.683594 -0.777344,-1.167969 -0.195312,-0.683594 -0.390625,-1.171875 -0.488282,-1.070312 -0.09766,-0.683594 -0.390625,-0.878906 -0.09766,-0.582032 -0.292969,-0.78125 -0.09766,-0.78125 -0.390625,-0.875 -0.484375,-1.074218 -0.390625,-1.265625 -0.195313,-0.78125 -0.78125,-2.730469 -0.292968,-1.171875 -0.488282,-1.167969 -0.191406,-0.976562 -0.488281,-1.558594 -0.195313,-0.976562 0.972657,-1.949219 1.757812,-2.339844 0.683594,-1.074219 0.484375,-0.875 0.683594,-0.878906 1.074218,-1.660156 0.875,-1.167969 0.683594,-0.976563 1.460938,-2.144531 0.585937,-0.78125 0.585938,-0.875 0.976562,-1.171875 0.484375,-0.683594 0.585938,-0.679687 0.390625,-0.976563 0.78125,-0.878906 0.390625,-0.777344 0.582031,-0.585937 0.390625,-0.585937 0.78125,-0.875 0.488281,-0.976563 0.390625,-0.683594 0.679688,-0.972656 0.390625,-0.488281 0.09766,-0.585938 0.488281,-0.488281 0.488282,-0.683594 0.875,-1.070312 0.78125,-0.976563 0.292968,-0.683594 0.78125,-1.167968 -0.292968,-0.683594 -1.171876,-0.292969 -0.875,0.09766 -1.953124,-0.195313 -1.363282,0.195313 h -1.851562 l -0.488282,0.09766 -0.976562,-0.09766 h -3.023438 l -1.753906,-0.09766 -0.976562,0.292969 -0.777344,1.074219 -0.292969,0.777343 -0.585937,0.585938 -1.074219,1.464844 -0.875,1.265625 -1.074219,1.464843 -0.585937,0.777344 -0.191407,0.683594 -0.878906,1.074219 -0.976562,1.460937 -0.488282,0.878906 -0.777343,0.875 -0.683594,0.976563 -0.78125,0.976563 -0.195313,0.484374 -0.484374,0.976563 -0.78125,0.683594 -0.585938,0.78125 -0.585938,0.875 -1.070312,1.269531 -0.585938,1.167969 -0.976562,0.976562 -0.195312,-0.683593 0.292968,-1.753907 0.292969,-1.171875 0.488281,-2.632812 0.195313,-0.582032 v -0.683593 l 0.195312,-0.683594 0.09766,-0.976563 0.195312,-0.875 0.195312,-0.78125 0.195313,-1.949218 0.09766,-0.683594 0.289063,-1.460938 0.292968,-1.660156 0.09766,-1.363281 0.195312,-1.660156 0.195313,-0.972657 -0.292969,-0.683593 -0.777344,-0.390625 h -1.464843 l -1.460938,-0.09766 h -0.683594 l -1.851562,0.09766 -1.367188,-0.09766 h -2.4375 l -1.363281,-0.09766 -0.683594,0.195313 h -0.878906 l -0.390625,0.292968 -0.292969,0.878907 -0.289062,1.851562 -0.195313,1.171875 v 1.265625 L 13.554688,-61.625 v 1.265625 l -0.390626,1.269531 -0.390624,2.535156 -0.09766,0.777344 -0.195312,0.585938 -0.09766,1.367187 v 0.582031 l -0.195312,0.683594 v 0.585938 l -0.195312,0.683594 -0.292969,1.167968 0.09766,0.683594 -0.191406,1.363281 -0.292969,0.585938 -0.09766,1.269531 -0.195313,0.683594 v 0.582031 l -0.292969,0.585937 -0.09766,1.367188 -0.09766,1.070312 -0.292969,1.367188 -0.292969,1.558594 -0.097656,0.683594 -0.097656,0.777343 -0.292969,1.367188 -0.386719,1.949219 -0.195312,1.464843 -0.097656,0.679688 -0.097656,1.367187 -0.390626,1.460938 -0.292968,1.464844 -0.195313,0.777343 -0.292969,1.367188 -0.390624,2.730469 -0.195313,1.460937 -0.292969,1.367187 -0.484375,2.046876 v 0.683593 l -0.390625,1.265625 v 0.585938 l -0.195312,0.585937 -0.097656,1.363281 -0.292969,0.683594 -0.195313,1.753906 v 0.488282 l -0.292968,1.269531 v 0.679687 l -0.097657,0.78125 v 0.683594 l -0.390625,1.265625 -0.097656,0.585938 -0.289062,1.269531 0.09375,0.679688 -0.289063,0.683593 v 0.683594 l -0.097656,1.460937 z m 0,0"
                 id="path163"
                 style="fill:#ffffff;fill-opacity:1" />
            </g>
          </g>
        </g>
        <g
           fill="#8c52ff"
           fill-opacity="0.5294"
           id="g169">
          <g
             transform="translate(65.210726,248.03628)"
             id="g168">
            <g
               id="g167">
              <path
                 d="m 36.191406,-44.203125 c -0.742187,1.648437 -1.484375,3.296875 -2.394531,4.800781 -3.363281,5.671875 -7.488281,10.6875 -11.789063,15.558594 -7.0625,8.03125 -14.054687,15.980469 -20.960937,24 -1.746094,2.042969 -3.402344,4.164062 -4.898437,6.347656 -0.777344,1.175782 -1.304688,2.566406 -1.667969,3.945313 -0.628907,2.117187 0.277343,3.476562 2.246093,4.269531 1.800782,0.652344 3.621094,0.585938 5.351563,0.367188 3.238281,-0.257813 6.167969,-1.363282 9,-2.703126 13.253906,-6.144531 26.332031,-12.511718 39.105469,-19.648437 1.90625,-1.023437 3.710937,-2.28125 5.523437,-3.457031 0.457031,-0.277344 0.734375,-0.773438 1.164063,-1.367188 -2.261719,-0.453125 -2.253906,-0.375 -4.246094,0.578125 C 38.699219,-4.839844 24.773438,1.835938 10.84375,8.429688 8.46875,9.570312 5.929688,10.570312 3.460938,11.480469 2.839844,11.691406 2.117188,11.589844 1.40625,11.644531 0.695312,9.714844 1.523438,8.140625 2.449219,6.796875 4.15625,4.277344 5.867188,1.835938 7.820312,-0.546875 c 6.378907,-7.65625 12.839844,-15.324219 19.296876,-22.988281 2.761718,-3.238282 5.613281,-6.328125 8.125,-9.707032 2.449218,-3.132812 4.722656,-6.492187 6.675781,-9.90625 2.308593,-3.917968 0.46875,-6.074218 -3.707031,-6.617187 -0.402344,-0.04687 -0.714844,-0.01953 -1.109376,0.01172 -2.125,0.246094 -4.34375,0.34375 -6.445312,0.910156 -5.199219,1.527344 -10.308594,3.207031 -15.503906,4.8125 -0.617188,0.207031 -1.335938,0.1875 -2.195313,0.335938 0.628907,-2.039063 1.804688,-3.242188 2.980469,-4.449219 6.011719,-6.28125 12.457031,-12.117188 19.433594,-17.28125 2.550781,-1.875 5.285156,-3.441407 8.023437,-5.011719 1.449219,-0.75 2.890625,-1.582031 4.792969,-1.652344 1.808594,3.746094 -0.05078,7.3125 -0.394531,10.992188 0.472656,-0.03516 0.953125,0.0039 1.183593,-0.09375 2.921876,-2.21875 4.582032,-5.289063 5.339844,-8.765625 0.566406,-2.828125 -0.933594,-4.695313 -3.964844,-4.847657 -2.15625,-0.148437 -4.367187,0.03125 -6.347656,1.0625 -3.050781,1.59375 -6.265625,3.121094 -9.21875,4.945313 -8.464844,5.441406 -16.140625,11.777344 -23.359375,18.867187 -1.175781,1.207032 -2.351562,2.414063 -3.355469,3.761719 -0.9375,1.1875 -2.261718,2.488281 -1.335937,4.160157 0.921875,1.59375 2.597656,1.699218 4.183594,1.652343 2.289062,-0.183593 4.574219,-0.445312 6.835937,-0.945312 3.265625,-0.894531 6.433594,-2.019531 9.691406,-2.996094 2.714844,-0.851563 5.511719,-1.632813 8.847657,-2.613281 -0.05078,1.355468 0.171875,2.132812 -0.101563,2.70703 z m 0,0"
                 id="path166" />
            </g>
          </g>
        </g>
        <g
           fill="#8c52ff"
           fill-opacity="0.5294"
           id="g172">
          <g
             transform="translate(127.33051,243.07598)"
             id="g171">
            <g
               id="g170">
              <path
                 d="m 26.613281,-10.945312 c -2.476562,1.789062 -4.503906,4.253906 -7.621093,6.011718 0.265624,-1.609375 0.410156,-2.8125 0.722656,-3.871094 0.992187,-3.496093 2.0625,-6.996093 2.976562,-10.484374 0.378906,-1.222657 0.671875,-2.515626 0.800782,-3.878907 0.144531,-2.15625 -0.871094,-2.949219 -3.085938,-2.851562 -1.429688,0.03516 -2.667969,0.453125 -3.707031,1.328125 -1.78125,1.574218 -3.640625,3.152344 -5.332031,4.875 -1.980469,2.066406 -3.785157,4.355468 -5.671876,6.570312 -0.371093,0.347656 -0.824218,0.621094 -1.714843,1.410156 0.574219,-2.75 1.121093,-4.859374 1.429687,-6.949218 0.371094,-2.332032 -0.402344,-3.066406 -2.765625,-2.796875 -0.472656,0.03906 -0.839843,0.386719 -1.382812,0.585937 -0.808594,3.800782 -1.695313,7.605469 -2.347657,11.390625 -0.421874,2.65625 0.949219,3.898438 3.582032,3.050781 0.855468,-0.226562 1.679687,-0.847656 2.425781,-1.464843 1.179687,-1.128907 2.347656,-2.414063 3.445313,-3.613281 1.886718,-2.214844 3.777343,-4.429688 5.671874,-6.570313 1.242188,-1.367187 2.578126,-2.507813 3.90625,-3.804687 0.746094,1.371093 0.03125,2.378906 -0.210937,3.351562 -0.894531,3.726562 -1.945313,7.464844 -2.839844,11.191406 -0.292969,1.292969 -0.265625,2.640625 -0.238281,3.992188 0.101562,1.261718 0.871094,1.914062 2.144531,1.972656 0.953125,0.00391 1.980469,-0.078125 2.824219,-0.464844 1.144531,-0.566406 2.28125,-1.292968 3.238281,-2.242187 3.613281,-3.46875 7.222657,-7.015625 10.832031,-10.558594 0.21875,-0.257813 0.351563,-0.585937 0.777344,-1.253906 -3.601562,0.683593 -5.542968,3.222656 -7.859375,5.074219 z m 0,0"
                 id="path169" />
            </g>
          </g>
        </g>
        <g
           fill="#8c52ff"
           fill-opacity="0.5294"
           id="g175">
          <g
             transform="translate(158.9824,240.54856)"
             id="g174">
            <g
               id="g173">
              <path
                 d="m 29.753906,-21.363281 c -2.316406,1.851562 -4.738281,3.316406 -7.617187,4.105469 -1.949219,0.472656 -3.855469,0.464843 -5.433594,-1.394532 1.097656,-3.1875 2.210937,-6.136718 3.246094,-9.078125 0.328125,-0.898437 0.632812,-2.035156 -0.296875,-2.757812 -0.925782,-0.640625 -2.039063,-0.628907 -3.113282,-0.148438 -0.539062,0.203125 -1.152343,0.488281 -1.515624,0.917969 -2.84375,3.164062 -4.539063,6.796875 -3.949219,11.199219 0.148437,0.859375 0.210937,1.648437 -0.128907,2.390625 -2.269531,4.394531 -4.535156,8.863281 -6.8125,13.175781 C 3.863281,-2.375 3.53125,-1.554688 2.230469,-1.925781 2.222656,-3.992188 2.132812,-6.128906 2.277344,-8.285156 c 0.160156,-2.953125 0.316406,-5.984375 0.394531,-9.007813 0.027344,-0.640625 -0.261719,-1.25 -0.578125,-2.257812 -0.59375,0.523437 -1.054688,0.71875 -1.265625,1.054687 -0.339844,0.742188 -0.671875,1.5625 -0.7578125,2.441406 -0.5976565,4.496094 -1.0273435,9.058594 -1.5351565,13.628907 -0.113281,0.566406 0.015625,1.191406 0.066406,1.824219 C -1.015625,1.195312 0.25,2.125 1.972656,1.828125 3.066406,1.582031 4.144531,1.179688 4.882812,0.484375 c 1.050782,-0.800781 2,-1.828125 2.707032,-2.917969 1.898437,-3.089844 3.71875,-6.175781 5.53125,-9.339844 0.628906,-1.082031 1.25,-2.246093 1.808594,-3.242187 9.535156,0.03516 14.527343,-2.113281 17.992187,-7.472656 -1.394531,-0.527344 -2.269531,0.417969 -3.167969,1.125 z m 0,0"
                 id="path172" />
            </g>
          </g>
        </g>
        <g
           fill="#8c52ff"
           fill-opacity="0.5294"
           id="g178">
          <g
             transform="translate(188.73991,238.17241)"
             id="g177">
            <g
               id="g176">
              <path
                 d="m 25.117188,-22.742188 c -1.53125,0.757813 -1.828126,1.976563 -2.386719,2.972657 -3.457031,5.441406 -7.6875,10.148437 -12.945313,13.984375 C 8.363281,-4.71875 6.9375,-3.652344 4.820312,-3.324219 4.441406,-4.089844 3.988281,-4.765625 3.847656,-5.550781 c -0.078125,-0.945313 0.00391,-1.90625 0.167969,-2.875 0.761719,-3.394531 1.523437,-6.792969 2.363281,-10.195313 0.226563,-1.132812 0.769532,-2.289062 0.515625,-3.460937 -2.757812,-0.730469 -3.535156,-0.511719 -4.5625,1.558593 -1.898437,4.042969 -3.308593,8.289063 -3.988281,12.710938 -0.042969,0.480469 -0.082031,0.960938 -0.125,1.441406 -0.164062,3.90625 1.65625,5.824219 5.617188,5.667969 2.777343,-0.0625 5.167968,-0.96875 7.421874,-2.578125 5.175782,-3.832031 9.492188,-8.464844 12.523438,-14.269531 0.625,-1.160157 1.082031,-2.390625 1.453125,-3.691407 0.132813,-0.328124 -0.0625,-0.789062 -0.117187,-1.5 z m -17.3125,-6.878906 c 0.367187,-0.347656 0.660156,-0.6875 0.863281,-1.101562 0.460937,-1.226563 0.839843,-2.449219 1.433593,-3.925782 -2.257812,-0.457031 -4.148437,-0.226562 -5.882812,0.945313 -1.355469,0.902344 -1.683594,2.753906 -0.886719,3.804687 1.0625,1.34375 3.21875,1.492188 4.472657,0.277344 z m 0,0"
                 id="path175" />
            </g>
          </g>
        </g>
        <g
           fill="#8c52ff"
           fill-opacity="0.5294"
           id="g181">
          <g
             transform="translate(211.70924,236.33829)"
             id="g180">
            <g
               id="g179">
              <path
                 d="m 29.582031,-20.554688 c -1.417969,1.144532 -2.753906,2.363282 -4,3.65625 -4.164062,4.542969 -8.246093,9.160157 -12.410156,13.703126 -0.804687,0.855468 -1.613281,1.714843 -2.5625,2.746093 C 8.496094,-3.0625 7.082031,-5.808594 6.054688,-8.746094 c -0.917969,-2.546875 -0.71875,-5.027344 0.28125,-7.410156 1.394531,-3.449219 3.804687,-6.101562 7.15625,-7.878906 0.535156,-0.28125 1.265624,-0.101563 2.132812,-0.171875 -0.171875,1.839843 -0.289062,3.359375 -0.507812,5.601562 1.082031,-0.402343 2.027343,-0.480469 2.3125,-0.898437 0.933593,-1.265625 1.699218,-2.601563 2.296874,-4.078125 0.457032,-1.226563 -0.109374,-2.375 -1.425781,-2.90625 -0.734375,-0.257813 -1.621093,-0.425781 -2.417969,-0.441407 -6.515624,-0.03516 -13.777343,5.550782 -15.421874,11.796876 -0.5468755,2.109374 -0.765626,4.351562 0.195312,6.421874 0.886719,2.152344 1.9375,4.371094 3.132812,6.421876 1.113282,1.976562 2.375,3.863281 3.566407,5.832031 C 6.488281,4.644531 5.769531,5.578125 5.054688,6.585938 3.640625,8.765625 2.144531,10.949219 0.820312,13.28125 0.265625,14.277344 0.0507812,15.566406 -0.0117188,16.765625 -0.117188,18.441406 0.90625,19.3125 2.742188,19.402344 c 1.433593,0.04687 2.828124,-0.382813 4.113281,-1.199219 1.886719,-1.265625 3.59375,-2.75 4.949219,-4.6875 1.578124,-2.113281 2.34375,-4.476563 1.734374,-7.128906 -0.125,-0.546875 -0.253906,-1.171875 -0.382812,-1.796875 0.867188,-1.101563 1.660156,-2.117188 2.453125,-3.136719 5.148437,-6.128906 10.308594,-12.183594 15.378906,-18.308594 0.800781,-0.9375 1.605469,-1.792969 2.316407,-2.804687 0.285156,-0.421875 0.320312,-0.980469 0.511718,-1.550782 -1.804687,-0.730468 -3.128906,-0.386718 -4.234375,0.65625 z M 9.214844,12.929688 c -0.816406,1.730468 -2.054688,3.101562 -4.160156,3.589843 0.890624,-2.773437 2.460937,-4.964843 4.503906,-7.273437 0.761718,1.609375 0.210937,2.683594 -0.34375,3.683594 z m 0,0"
                 id="path178" />
            </g>
          </g>
        </g>
        <g
           fill="#8c52ff"
           fill-opacity="0.5294"
           id="g184">
          <g
             transform="translate(239.57238,234.1134)"
             id="g183">
            <g
               id="g182">
              <path
                 d="m 25.117188,-22.742188 c -1.53125,0.757813 -1.828126,1.976563 -2.386719,2.972657 -3.457031,5.441406 -7.6875,10.148437 -12.945313,13.984375 C 8.363281,-4.71875 6.9375,-3.652344 4.820312,-3.324219 4.441406,-4.089844 3.988281,-4.765625 3.847656,-5.550781 c -0.078125,-0.945313 0.00391,-1.90625 0.167969,-2.875 0.761719,-3.394531 1.523437,-6.792969 2.363281,-10.195313 0.226563,-1.132812 0.769532,-2.289062 0.515625,-3.460937 -2.757812,-0.730469 -3.535156,-0.511719 -4.5625,1.558593 -1.898437,4.042969 -3.308593,8.289063 -3.988281,12.710938 -0.042969,0.480469 -0.082031,0.960938 -0.125,1.441406 -0.164062,3.90625 1.65625,5.824219 5.617188,5.667969 2.777343,-0.0625 5.167968,-0.96875 7.421874,-2.578125 5.175782,-3.832031 9.492188,-8.464844 12.523438,-14.269531 0.625,-1.160157 1.082031,-2.390625 1.453125,-3.691407 0.132813,-0.328124 -0.0625,-0.789062 -0.117187,-1.5 z m -17.3125,-6.878906 c 0.367187,-0.347656 0.660156,-0.6875 0.863281,-1.101562 0.460937,-1.226563 0.839843,-2.449219 1.433593,-3.925782 -2.257812,-0.457031 -4.148437,-0.226562 -5.882812,0.945313 -1.355469,0.902344 -1.683594,2.753906 -0.886719,3.804687 1.0625,1.34375 3.21875,1.492188 4.472657,0.277344 z m 0,0"
                 id="path181" />
            </g>
          </g>
        </g>
        <g
           fill="#8c52ff"
           fill-opacity="0.5294"
           id="g187">
          <g
             transform="translate(262.5417,232.27929)"
             id="g186">
            <g
               id="g185">
              <path
                 d="m 18.144531,-9.550781 c -1.460937,0.59375 -2.921875,1.183593 -4.632812,0.6875 0.378906,-1.222657 0.6875,-2.359375 1,-3.417969 0.738281,-2.679688 1.320312,-5.347656 1.179687,-8.117188 -0.128906,-3.566406 -1.632812,-5.511718 -4.183594,-5.625 -0.71875,-0.02344 -1.421874,0.113282 -2.121093,0.328126 -2.171875,0.648437 -3.953125,2.222656 -5.539063,4.253906 -1.65625,2.121094 -2.816406,4.515625 -2.492187,7.589844 -0.753907,1.488281 -1.515625,2.902343 -2.195313,4.304687 -0.730468,1.808594 -1.453125,3.691406 -1.605468,5.769531 -0.167969,2.875 0.691406,4.710938 2.714843,5.1875 C 1.488281,1.707031 2.828125,1.601562 3.996094,1.269531 5.863281,0.804688 7.5,-0.597656 8.953125,-2.304688 c 1.167969,-1.285156 2.328125,-2.648437 3.636719,-4.183593 5.277344,-0.578125 5.894531,-0.789063 7.710937,-2.917969 -1.238281,-0.617188 -1.238281,-0.617188 -2.15625,-0.144531 z M 2.433594,-0.351562 C 1.652344,-0.210938 0.980469,-0.632812 0.894531,-1.738281 0.734375,-2.757812 0.722656,-3.871094 0.878906,-4.917969 c 0.386719,-2.09375 0.941406,-4.125 2.054688,-6.121093 1.179687,0.859374 2.03125,1.585937 2.957031,2.226562 0.917969,0.5625 1.917969,1.117188 2.914063,1.675781 -1.121094,2.867188 -4.347657,6.226563 -6.371094,6.785157 z m 7.992187,-9.378907 c -1.972656,-0.796875 -3.261719,-2.042969 -4.011719,-4.445312 -0.429687,-1.398438 -0.515624,-2.5 0.015626,-3.816407 1.140624,-2.632812 2.632812,-4.816406 4.773437,-5.863281 1.070313,0.472657 1.328125,1.722657 1.425781,2.90625 0.320313,4.027344 -0.496094,7.746094 -2.203125,11.21875 z m 0,0"
                 id="path184" />
            </g>
          </g>
        </g>
        <g
           fill="#8c52ff"
           fill-opacity="0.5294"
           id="g190">
          <g
             transform="translate(281.3276,230.77923)"
             id="g189">
            <g
               id="g188">
              <path
                 d="m 26.613281,-10.945312 c -2.476562,1.789062 -4.503906,4.253906 -7.621093,6.011718 0.265624,-1.609375 0.410156,-2.8125 0.722656,-3.871094 0.992187,-3.496093 2.0625,-6.996093 2.976562,-10.484374 0.378906,-1.222657 0.671875,-2.515626 0.800782,-3.878907 0.144531,-2.15625 -0.871094,-2.949219 -3.085938,-2.851562 -1.429688,0.03516 -2.667969,0.453125 -3.707031,1.328125 -1.78125,1.574218 -3.640625,3.152344 -5.332031,4.875 -1.980469,2.066406 -3.785157,4.355468 -5.671876,6.570312 -0.371093,0.347656 -0.824218,0.621094 -1.714843,1.410156 0.574219,-2.75 1.121093,-4.859374 1.429687,-6.949218 0.371094,-2.332032 -0.402344,-3.066406 -2.765625,-2.796875 -0.472656,0.03906 -0.839843,0.386719 -1.382812,0.585937 -0.808594,3.800782 -1.695313,7.605469 -2.347657,11.390625 -0.421874,2.65625 0.949219,3.898438 3.582032,3.050781 0.855468,-0.226562 1.679687,-0.847656 2.425781,-1.464843 1.179687,-1.128907 2.347656,-2.414063 3.445313,-3.613281 1.886718,-2.214844 3.777343,-4.429688 5.671874,-6.570313 1.242188,-1.367187 2.578126,-2.507813 3.90625,-3.804687 0.746094,1.371093 0.03125,2.378906 -0.210937,3.351562 -0.894531,3.726562 -1.945313,7.464844 -2.839844,11.191406 -0.292969,1.292969 -0.265625,2.640625 -0.238281,3.992188 0.101562,1.261718 0.871094,1.914062 2.144531,1.972656 0.953125,0.00391 1.980469,-0.078125 2.824219,-0.464844 1.144531,-0.566406 2.28125,-1.292968 3.238281,-2.242187 3.613281,-3.46875 7.222657,-7.015625 10.832031,-10.558594 0.21875,-0.257813 0.351563,-0.585937 0.777344,-1.253906 -3.601562,0.683593 -5.542968,3.222656 -7.859375,5.074219 z m 0,0"
                 id="path187" />
            </g>
          </g>
        </g>
        <g
           fill="#05347e"
           fill-opacity="1"
           id="g191"
           style="fill:#ff5e8f;fill-opacity:1">
          <path
             d="m 103.9252,200.65378 c -0.74219,1.64844 -1.48438,3.29688 -2.39453,4.80079 -3.363285,5.67187 -7.488285,10.6875 -11.789067,15.55859 -7.0625,8.03125 -14.054687,15.98047 -20.960937,24 -1.746094,2.04297 -3.402344,4.16406 -4.898437,6.34766 -0.777344,1.17578 -1.304688,2.5664 -1.667969,3.94531 -0.628907,2.11719 0.277343,3.47656 2.246093,4.26953 1.800782,0.65234 3.621094,0.58594 5.351563,0.36719 3.238281,-0.25782 6.167969,-1.36328 9,-2.70313 13.253906,-6.14453 26.332034,-12.51172 39.105464,-19.64844 1.90625,-1.02343 3.71094,-2.28125 5.52344,-3.45703 0.45703,-0.27734 0.73438,-0.77343 1.16406,-1.36718 -2.26171,-0.45313 -2.2539,-0.375 -4.24609,0.57812 -13.92578,6.67188 -27.851561,13.34766 -41.781249,19.94141 -2.375,1.14062 -4.914062,2.14062 -7.382812,3.05078 -0.621094,0.21094 -1.34375,0.10937 -2.054688,0.16406 -0.710938,-1.92969 0.117188,-3.50391 1.042969,-4.84766 1.707031,-2.51953 3.417969,-4.96093 5.371093,-7.34375 6.378907,-7.65625 12.839844,-15.32421 19.296876,-22.98828 2.761718,-3.23828 5.613281,-6.32812 8.125001,-9.70703 2.44922,-3.13281 4.72265,-6.49219 6.67578,-9.90625 2.30859,-3.91797 0.46875,-6.07422 -3.70703,-6.61719 -0.40235,-0.0469 -0.71485,-0.0195 -1.10938,0.0117 -2.125,0.2461 -4.34375,0.34375 -6.445309,0.91016 -5.199219,1.52734 -10.308594,3.20703 -15.503906,4.8125 -0.617188,0.20703 -1.335938,0.1875 -2.195313,0.33594 0.628907,-2.03906 1.804688,-3.24219 2.980469,-4.44922 6.011719,-6.28125 12.457031,-12.11719 19.433589,-17.28125 2.55079,-1.875 5.28516,-3.44141 8.02344,-5.01172 1.44922,-0.75 2.89063,-1.58203 4.79297,-1.65234 1.80859,3.74609 -0.0508,7.3125 -0.39453,10.99218 0.47266,-0.0352 0.95312,0.004 1.18359,-0.0937 2.92188,-2.21875 4.58203,-5.28906 5.33985,-8.76562 0.5664,-2.82813 -0.9336,-4.69531 -3.96485,-4.84766 -2.15625,-0.14843 -4.36718,0.0312 -6.34765,1.0625 -3.05078,1.59375 -6.26563,3.1211 -9.21875,4.94532 -8.464847,5.4414 -16.140628,11.77734 -23.359378,18.86718 -1.175781,1.20703 -2.351562,2.41407 -3.355469,3.76172 -0.9375,1.1875 -2.261718,2.48828 -1.335937,4.16016 0.921875,1.59375 2.597656,1.69922 4.183594,1.65234 2.289062,-0.18359 4.574219,-0.44531 6.835937,-0.94531 3.265625,-0.89453 6.433594,-2.01953 9.691406,-2.99609 2.714844,-0.85157 5.511717,-1.63282 8.847657,-2.61329 -0.0508,1.35547 0.17187,2.13282 -0.10156,2.70703 z m 0,0"
             id="path190"
             style="fill:#ff5e8f;fill-opacity:1" />
        </g>
        <g
           fill="#05347e"
           fill-opacity="1"
           id="g194"
           style="fill:#ff5e8f;fill-opacity:1">
          <g
             transform="translate(129.85358,239.89661)"
             id="g193"
             style="fill:#ff5e8f;fill-opacity:1">
            <g
               id="g192"
               style="fill:#ff5e8f;fill-opacity:1">
              <path
                 d="m 26.613281,-10.945312 c -2.476562,1.789062 -4.503906,4.253906 -7.621093,6.011718 0.265624,-1.609375 0.410156,-2.8125 0.722656,-3.871094 0.992187,-3.496093 2.0625,-6.996093 2.976562,-10.484374 0.378906,-1.222657 0.671875,-2.515626 0.800782,-3.878907 0.144531,-2.15625 -0.871094,-2.949219 -3.085938,-2.851562 -1.429688,0.03516 -2.667969,0.453125 -3.707031,1.328125 -1.78125,1.574218 -3.640625,3.152344 -5.332031,4.875 -1.980469,2.066406 -3.785157,4.355468 -5.671876,6.570312 -0.371093,0.347656 -0.824218,0.621094 -1.714843,1.410156 0.574219,-2.75 1.121093,-4.859374 1.429687,-6.949218 0.371094,-2.332032 -0.402344,-3.066406 -2.765625,-2.796875 -0.472656,0.03906 -0.839843,0.386719 -1.382812,0.585937 -0.808594,3.800782 -1.695313,7.605469 -2.347657,11.390625 -0.421874,2.65625 0.949219,3.898438 3.582032,3.050781 0.855468,-0.226562 1.679687,-0.847656 2.425781,-1.464843 1.179687,-1.128907 2.347656,-2.414063 3.445313,-3.613281 1.886718,-2.214844 3.777343,-4.429688 5.671874,-6.570313 1.242188,-1.367187 2.578126,-2.507813 3.90625,-3.804687 0.746094,1.371093 0.03125,2.378906 -0.210937,3.351562 -0.894531,3.726562 -1.945313,7.464844 -2.839844,11.191406 -0.292969,1.292969 -0.265625,2.640625 -0.238281,3.992188 0.101562,1.261718 0.871094,1.914062 2.144531,1.972656 0.953125,0.00391 1.980469,-0.078125 2.824219,-0.464844 1.144531,-0.566406 2.28125,-1.292968 3.238281,-2.242187 3.613281,-3.46875 7.222657,-7.015625 10.832031,-10.558594 0.21875,-0.257813 0.351563,-0.585937 0.777344,-1.253906 -3.601562,0.683593 -5.542968,3.222656 -7.859375,5.074219 z m 0,0"
                 id="path191"
                 style="fill:#ff5e8f;fill-opacity:1" />
            </g>
          </g>
        </g>
        <g
           fill="#05347e"
           fill-opacity="1"
           id="g197"
           style="fill:#ff5e8f;fill-opacity:1">
          <g
             transform="translate(161.50547,237.36919)"
             id="g196"
             style="fill:#ff5e8f;fill-opacity:1">
            <g
               id="g195"
               style="fill:#ff5e8f;fill-opacity:1">
              <path
                 d="m 29.753906,-21.363281 c -2.316406,1.851562 -4.738281,3.316406 -7.617187,4.105469 -1.949219,0.472656 -3.855469,0.464843 -5.433594,-1.394532 1.097656,-3.1875 2.210937,-6.136718 3.246094,-9.078125 0.328125,-0.898437 0.632812,-2.035156 -0.296875,-2.757812 -0.925782,-0.640625 -2.039063,-0.628907 -3.113282,-0.148438 -0.539062,0.203125 -1.152343,0.488281 -1.515624,0.917969 -2.84375,3.164062 -4.539063,6.796875 -3.949219,11.199219 0.148437,0.859375 0.210937,1.648437 -0.128907,2.390625 -2.269531,4.394531 -4.535156,8.863281 -6.8125,13.175781 C 3.863281,-2.375 3.53125,-1.554688 2.230469,-1.925781 2.222656,-3.992188 2.132812,-6.128906 2.277344,-8.285156 c 0.160156,-2.953125 0.316406,-5.984375 0.394531,-9.007813 0.027344,-0.640625 -0.261719,-1.25 -0.578125,-2.257812 -0.59375,0.523437 -1.054688,0.71875 -1.265625,1.054687 -0.339844,0.742188 -0.671875,1.5625 -0.7578125,2.441406 -0.5976565,4.496094 -1.0273435,9.058594 -1.5351565,13.628907 -0.113281,0.566406 0.015625,1.191406 0.066406,1.824219 C -1.015625,1.195312 0.25,2.125 1.972656,1.828125 3.066406,1.582031 4.144531,1.179688 4.882812,0.484375 c 1.050782,-0.800781 2,-1.828125 2.707032,-2.917969 1.898437,-3.089844 3.71875,-6.175781 5.53125,-9.339844 0.628906,-1.082031 1.25,-2.246093 1.808594,-3.242187 9.535156,0.03516 14.527343,-2.113281 17.992187,-7.472656 -1.394531,-0.527344 -2.269531,0.417969 -3.167969,1.125 z m 0,0"
                 id="path194"
                 style="fill:#ff5e8f;fill-opacity:1" />
            </g>
          </g>
        </g>
        <g
           fill="#05347e"
           fill-opacity="1"
           id="g200"
           style="fill:#ff5e8f;fill-opacity:1">
          <g
             transform="translate(191.26298,234.99303)"
             id="g199"
             style="fill:#ff5e8f;fill-opacity:1">
            <g
               id="g198"
               style="fill:#ff5e8f;fill-opacity:1">
              <path
                 d="m 25.117188,-22.742188 c -1.53125,0.757813 -1.828126,1.976563 -2.386719,2.972657 -3.457031,5.441406 -7.6875,10.148437 -12.945313,13.984375 C 8.363281,-4.71875 6.9375,-3.652344 4.820312,-3.324219 4.441406,-4.089844 3.988281,-4.765625 3.847656,-5.550781 c -0.078125,-0.945313 0.00391,-1.90625 0.167969,-2.875 0.761719,-3.394531 1.523437,-6.792969 2.363281,-10.195313 0.226563,-1.132812 0.769532,-2.289062 0.515625,-3.460937 -2.757812,-0.730469 -3.535156,-0.511719 -4.5625,1.558593 -1.898437,4.042969 -3.308593,8.289063 -3.988281,12.710938 -0.042969,0.480469 -0.082031,0.960938 -0.125,1.441406 -0.164062,3.90625 1.65625,5.824219 5.617188,5.667969 2.777343,-0.0625 5.167968,-0.96875 7.421874,-2.578125 5.175782,-3.832031 9.492188,-8.464844 12.523438,-14.269531 0.625,-1.160157 1.082031,-2.390625 1.453125,-3.691407 0.132813,-0.328124 -0.0625,-0.789062 -0.117187,-1.5 z m -17.3125,-6.878906 c 0.367187,-0.347656 0.660156,-0.6875 0.863281,-1.101562 0.460937,-1.226563 0.839843,-2.449219 1.433593,-3.925782 -2.257812,-0.457031 -4.148437,-0.226562 -5.882812,0.945313 -1.355469,0.902344 -1.683594,2.753906 -0.886719,3.804687 1.0625,1.34375 3.21875,1.492188 4.472657,0.277344 z m 0,0"
                 id="path197"
                 style="fill:#ff5e8f;fill-opacity:1" />
            </g>
          </g>
        </g>
        <g
           fill="#05347e"
           fill-opacity="1"
           id="g203"
           style="fill:#ff5e8f;fill-opacity:1">
          <g
             transform="translate(214.2323,233.15892)"
             id="g202"
             style="fill:#ff5e8f;fill-opacity:1">
            <g
               id="g201"
               style="fill:#ff5e8f;fill-opacity:1">
              <path
                 d="m 29.582031,-20.554688 c -1.417969,1.144532 -2.753906,2.363282 -4,3.65625 -4.164062,4.542969 -8.246093,9.160157 -12.410156,13.703126 -0.804687,0.855468 -1.613281,1.714843 -2.5625,2.746093 C 8.496094,-3.0625 7.082031,-5.808594 6.054688,-8.746094 c -0.917969,-2.546875 -0.71875,-5.027344 0.28125,-7.410156 1.394531,-3.449219 3.804687,-6.101562 7.15625,-7.878906 0.535156,-0.28125 1.265624,-0.101563 2.132812,-0.171875 -0.171875,1.839843 -0.289062,3.359375 -0.507812,5.601562 1.082031,-0.402343 2.027343,-0.480469 2.3125,-0.898437 0.933593,-1.265625 1.699218,-2.601563 2.296874,-4.078125 0.457032,-1.226563 -0.109374,-2.375 -1.425781,-2.90625 -0.734375,-0.257813 -1.621093,-0.425781 -2.417969,-0.441407 -6.515624,-0.03516 -13.777343,5.550782 -15.421874,11.796876 -0.5468755,2.109374 -0.765626,4.351562 0.195312,6.421874 0.886719,2.152344 1.9375,4.371094 3.132812,6.421876 1.113282,1.976562 2.375,3.863281 3.566407,5.832031 C 6.488281,4.644531 5.769531,5.578125 5.054688,6.585938 3.640625,8.765625 2.144531,10.949219 0.820312,13.28125 0.265625,14.277344 0.0507812,15.566406 -0.0117188,16.765625 -0.117188,18.441406 0.90625,19.3125 2.742188,19.402344 c 1.433593,0.04687 2.828124,-0.382813 4.113281,-1.199219 1.886719,-1.265625 3.59375,-2.75 4.949219,-4.6875 1.578124,-2.113281 2.34375,-4.476563 1.734374,-7.128906 -0.125,-0.546875 -0.253906,-1.171875 -0.382812,-1.796875 0.867188,-1.101563 1.660156,-2.117188 2.453125,-3.136719 5.148437,-6.128906 10.308594,-12.183594 15.378906,-18.308594 0.800781,-0.9375 1.605469,-1.792969 2.316407,-2.804687 0.285156,-0.421875 0.320312,-0.980469 0.511718,-1.550782 -1.804687,-0.730468 -3.128906,-0.386718 -4.234375,0.65625 z M 9.214844,12.929688 c -0.816406,1.730468 -2.054688,3.101562 -4.160156,3.589843 0.890624,-2.773437 2.460937,-4.964843 4.503906,-7.273437 0.761718,1.609375 0.210937,2.683594 -0.34375,3.683594 z m 0,0"
                 id="path200"
                 style="fill:#ff5e8f;fill-opacity:1" />
            </g>
          </g>
        </g>
        <g
           fill="#05347e"
           fill-opacity="1"
           id="g206"
           style="fill:#ff5e8f;fill-opacity:1">
          <g
             transform="translate(242.09544,230.93403)"
             id="g205"
             style="fill:#ff5e8f;fill-opacity:1">
            <g
               id="g204"
               style="fill:#ff5e8f;fill-opacity:1">
              <path
                 d="m 25.117188,-22.742188 c -1.53125,0.757813 -1.828126,1.976563 -2.386719,2.972657 -3.457031,5.441406 -7.6875,10.148437 -12.945313,13.984375 C 8.363281,-4.71875 6.9375,-3.652344 4.820312,-3.324219 4.441406,-4.089844 3.988281,-4.765625 3.847656,-5.550781 c -0.078125,-0.945313 0.00391,-1.90625 0.167969,-2.875 0.761719,-3.394531 1.523437,-6.792969 2.363281,-10.195313 0.226563,-1.132812 0.769532,-2.289062 0.515625,-3.460937 -2.757812,-0.730469 -3.535156,-0.511719 -4.5625,1.558593 -1.898437,4.042969 -3.308593,8.289063 -3.988281,12.710938 -0.042969,0.480469 -0.082031,0.960938 -0.125,1.441406 -0.164062,3.90625 1.65625,5.824219 5.617188,5.667969 2.777343,-0.0625 5.167968,-0.96875 7.421874,-2.578125 5.175782,-3.832031 9.492188,-8.464844 12.523438,-14.269531 0.625,-1.160157 1.082031,-2.390625 1.453125,-3.691407 0.132813,-0.328124 -0.0625,-0.789062 -0.117187,-1.5 z m -17.3125,-6.878906 c 0.367187,-0.347656 0.660156,-0.6875 0.863281,-1.101562 0.460937,-1.226563 0.839843,-2.449219 1.433593,-3.925782 -2.257812,-0.457031 -4.148437,-0.226562 -5.882812,0.945313 -1.355469,0.902344 -1.683594,2.753906 -0.886719,3.804687 1.0625,1.34375 3.21875,1.492188 4.472657,0.277344 z m 0,0"
                 id="path203"
                 style="fill:#ff5e8f;fill-opacity:1" />
            </g>
          </g>
        </g>
        <g
           fill="#05347e"
           fill-opacity="1"
           id="g209"
           style="fill:#ff5e8f;fill-opacity:1">
          <g
             transform="translate(265.06477,229.09992)"
             id="g208"
             style="fill:#ff5e8f;fill-opacity:1">
            <g
               id="g207"
               style="fill:#ff5e8f;fill-opacity:1">
              <path
                 d="m 18.144531,-9.550781 c -1.460937,0.59375 -2.921875,1.183593 -4.632812,0.6875 0.378906,-1.222657 0.6875,-2.359375 1,-3.417969 0.738281,-2.679688 1.320312,-5.347656 1.179687,-8.117188 -0.128906,-3.566406 -1.632812,-5.511718 -4.183594,-5.625 -0.71875,-0.02344 -1.421874,0.113282 -2.121093,0.328126 -2.171875,0.648437 -3.953125,2.222656 -5.539063,4.253906 -1.65625,2.121094 -2.816406,4.515625 -2.492187,7.589844 -0.753907,1.488281 -1.515625,2.902343 -2.195313,4.304687 -0.730468,1.808594 -1.453125,3.691406 -1.605468,5.769531 -0.167969,2.875 0.691406,4.710938 2.714843,5.1875 C 1.488281,1.707031 2.828125,1.601562 3.996094,1.269531 5.863281,0.804688 7.5,-0.597656 8.953125,-2.304688 c 1.167969,-1.285156 2.328125,-2.648437 3.636719,-4.183593 5.277344,-0.578125 5.894531,-0.789063 7.710937,-2.917969 -1.238281,-0.617188 -1.238281,-0.617188 -2.15625,-0.144531 z M 2.433594,-0.351562 C 1.652344,-0.210938 0.980469,-0.632812 0.894531,-1.738281 0.734375,-2.757812 0.722656,-3.871094 0.878906,-4.917969 c 0.386719,-2.09375 0.941406,-4.125 2.054688,-6.121093 1.179687,0.859374 2.03125,1.585937 2.957031,2.226562 0.917969,0.5625 1.917969,1.117188 2.914063,1.675781 -1.121094,2.867188 -4.347657,6.226563 -6.371094,6.785157 z m 7.992187,-9.378907 c -1.972656,-0.796875 -3.261719,-2.042969 -4.011719,-4.445312 -0.429687,-1.398438 -0.515624,-2.5 0.015626,-3.816407 1.140624,-2.632812 2.632812,-4.816406 4.773437,-5.863281 1.070313,0.472657 1.328125,1.722657 1.425781,2.90625 0.320313,4.027344 -0.496094,7.746094 -2.203125,11.21875 z m 0,0"
                 id="path206"
                 style="fill:#ff5e8f;fill-opacity:1" />
            </g>
          </g>
        </g>
        <g
           fill="#05347e"
           fill-opacity="1"
           id="g212"
           style="fill:#ff5e8f;fill-opacity:1">
          <g
             transform="translate(283.85066,227.59985)"
             id="g211"
             style="fill:#ff5e8f;fill-opacity:1">
            <g
               id="g210"
               style="fill:#ff5e8f;fill-opacity:1">
              <path
                 d="m 26.613281,-10.945312 c -2.476562,1.789062 -4.503906,4.253906 -7.621093,6.011718 0.265624,-1.609375 0.410156,-2.8125 0.722656,-3.871094 0.992187,-3.496093 2.0625,-6.996093 2.976562,-10.484374 0.378906,-1.222657 0.671875,-2.515626 0.800782,-3.878907 0.144531,-2.15625 -0.871094,-2.949219 -3.085938,-2.851562 -1.429688,0.03516 -2.667969,0.453125 -3.707031,1.328125 -1.78125,1.574218 -3.640625,3.152344 -5.332031,4.875 -1.980469,2.066406 -3.785157,4.355468 -5.671876,6.570312 -0.371093,0.347656 -0.824218,0.621094 -1.714843,1.410156 0.574219,-2.75 1.121093,-4.859374 1.429687,-6.949218 0.371094,-2.332032 -0.402344,-3.066406 -2.765625,-2.796875 -0.472656,0.03906 -0.839843,0.386719 -1.382812,0.585937 -0.808594,3.800782 -1.695313,7.605469 -2.347657,11.390625 -0.421874,2.65625 0.949219,3.898438 3.582032,3.050781 0.855468,-0.226562 1.679687,-0.847656 2.425781,-1.464843 1.179687,-1.128907 2.347656,-2.414063 3.445313,-3.613281 1.886718,-2.214844 3.777343,-4.429688 5.671874,-6.570313 1.242188,-1.367187 2.578126,-2.507813 3.90625,-3.804687 0.746094,1.371093 0.03125,2.378906 -0.210937,3.351562 -0.894531,3.726562 -1.945313,7.464844 -2.839844,11.191406 -0.292969,1.292969 -0.265625,2.640625 -0.238281,3.992188 0.101562,1.261718 0.871094,1.914062 2.144531,1.972656 0.953125,0.00391 1.980469,-0.078125 2.824219,-0.464844 1.144531,-0.566406 2.28125,-1.292968 3.238281,-2.242187 3.613281,-3.46875 7.222657,-7.015625 10.832031,-10.558594 0.21875,-0.257813 0.351563,-0.585937 0.777344,-1.253906 -3.601562,0.683593 -5.542968,3.222656 -7.859375,5.074219 z m 0,0"
                 id="path209"
                 style="fill:#ff5e8f;fill-opacity:1" />
            </g>
          </g>
        </g>
      </g>
      <text
         xml:space="preserve"
         style="font-weight:bold;font-size:113.16px;line-height:0.9;font-family:Poppins;-inkscape-font-specification:'Poppins Bold';letter-spacing:0px;fill:#8c51ff;fill-opacity:0.529412;stroke:none;stroke-width:1.49691"
         x="1127.5414"
         y="-154.68188"
         id="text213"><tspan
           sodipodi:role="line"
           id="tspan213"
           style="font-style:normal;font-variant:normal;font-weight:normal;font-stretch:normal;font-family:VanDoesburgArchiType;-inkscape-font-specification:VanDoesburgArchiType;fill:#8c51ff;fill-opacity:0.529412;stroke:none;stroke-width:1.49691"
           x="1127.5414"
           y="-154.68188">2.0</tspan></text>
      <text
         xml:space="preserve"
         style="font-weight:bold;font-size:113.16px;line-height:0.9;font-family:Poppins;-inkscape-font-specification:'Poppins Bold';letter-spacing:0px;fill:#ffffff;stroke:none;stroke-width:1.49691"
         x="1123.308"
         y="-160.50272"
         id="text214"><tspan
           sodipodi:role="line"
           id="tspan214"
           style="font-style:normal;font-variant:normal;font-weight:normal;font-stretch:normal;font-family:VanDoesburgArchiType;-inkscape-font-specification:VanDoesburgArchiType;stroke:none;stroke-width:1.49691"
           x="1123.308"
           y="-160.50272">2.0</tspan></text>
    </g>
  </g>
</svg>
