<!DOCTYPE svg PUBLIC "-//W3C//DTD SVG 1.1//EN" "http://www.w3.org/Graphics/SVG/1.1/DTD/svg11.dtd">
<!-- Uploaded to: SVG Repo, www.svgrepo.com, Transformed by: SVG Repo Mixer Tools -->
<svg fill="#b22a2a" width="800px" height="800px" viewBox="-3.2 -3.2 38.40 38.40" version="1.1" xmlns="http://www.w3.org/2000/svg" stroke="#b22a2a">
<g id="SVGRepo_bgCarrier" stroke-width="0">
<path transform="translate(-3.2, -3.2), scale(1.2)" d="M16,29.098461031325552C18.43548439279777,29.11614761209675,21.548558695077162,30.215585136843842,23.14582755249974,28.37693638305511C24.927959772835024,26.325487642425642,23.191077948035154,23.0649330814587,23.578063847449847,20.37519720226134C23.799160364520223,18.83847135351799,24.267821403991753,17.405871087171793,24.926559963900793,16C26.183536435990288,13.317377504650954,29.702918214005532,11.299015074683794,29.198689183090874,8.379733247192286C28.757747556637458,5.826859854014188,25.10813978960823,5.405523718952232,22.870991809195598,4.099093088083633C20.62253888380978,2.7860606916981503,18.599736486657644,0.8168674836759983,16.000000000000004,0.6720751096543509C13.363313353316583,0.5252247957537693,10.902282857229945,1.8935572338495674,8.672446374144215,3.3083048248322218C6.503882510152315,4.684177237785574,3.9643965150812344,6.203296744152181,3.3512431132944,8.697236806546382C2.733731083685454,11.208905151146881,5.170216048441149,13.441882841855403,5.552100304710237,15.999999999999998C5.859866231178909,18.061622819656165,4.807938322995121,20.133399143096355,5.358593693723472,22.143818795484925C5.993394943435548,24.461451521183996,6.902331026709126,26.958968459485313,8.913843452636343,28.273583170420693C10.93893461458595,29.597072201942343,13.58084543768089,29.080893038407595,16,29.098461031325552" fill="#95dcf4" strokewidth="0"/>
</g>
<g id="SVGRepo_tracerCarrier" stroke-linecap="round" stroke-linejoin="round"/>
<g id="SVGRepo_iconCarrier"> <title>health</title> <path d="M27 28.031h-2v1.938h-4v-1.938h-11v1.938h-4v-1.938h-2c-1.105 0-2-0.896-2-2v-17c0-1.105 0.895-2 2-2h23c1.104 0 2 0.896 2 2v17c0 1.105-0.896 2-2 2zM20.999 16.031h-3.999v-4h-3v4h-4v3h4v4h3v-4h3.999v-3zM19 4.010h-6v2.021h-2v-0.979h1v-3.021h7.958v3h1.042v1h-2v-2.021z"/> </g>
</svg>